<svg width="189" height="158" viewBox="0 0 189 158" fill="none" xmlns="http://www.w3.org/2000/svg">
    <g opacity="0.6" filter="url(#filter0_d_221_1653)">
        <path d="M24.0518 46.4092C24.0582 46.5122 24.0647 46.6088 24.0711 46.7054C24.0582 46.6281 24.0518 46.5573 24.0518 46.4864V46.4092Z" fill="url(#paint0_linear_221_1653)"/>
        <path d="M73.4412 29.3198C73.4412 29.4743 73.4284 29.6353 73.4026 29.7899C73.4091 29.7963 73.4026 29.7963 73.4026 29.8027C73.3962 29.8285 73.3962 29.8478 73.3898 29.8736C73.3704 30.0281 73.3318 30.1891 73.2803 30.3372C73.2674 30.3887 73.2481 30.4402 73.2288 30.4853C73.2095 30.5561 73.1837 30.6205 73.1515 30.6914C73.0807 30.8652 72.9905 31.0455 72.8875 31.2194C72.8295 31.3096 72.778 31.3932 72.7136 31.4834C72.6556 31.5671 72.5913 31.6508 72.5205 31.741C72.4496 31.8247 72.3788 31.9148 72.3016 31.9985C72.2243 32.0822 72.1469 32.166 72.0632 32.2432C71.8958 32.4107 71.7155 32.5652 71.5223 32.7198C71.4386 32.7906 71.3485 32.8614 71.2519 32.9258C71.1618 32.9902 71.0716 33.0546 70.975 33.119C70.8334 33.2156 70.6917 33.2993 70.5371 33.3895L41.1545 50.4665C37.2587 52.7267 30.916 52.7267 26.9945 50.4665C26.8721 50.3957 26.7498 50.3248 26.6404 50.2476C26.4086 50.1059 26.1961 49.9513 25.9964 49.7968C25.8999 49.7195 25.8032 49.6358 25.7066 49.5521C25.6487 49.5006 25.5843 49.4426 25.5328 49.3911C25.462 49.3267 25.3911 49.2559 25.3267 49.1851C25.2237 49.082 25.1271 48.9726 25.037 48.8695C24.9468 48.7601 24.8631 48.6506 24.7858 48.5411C24.7215 48.4574 24.6635 48.3673 24.612 48.2771C24.5025 48.0968 24.4123 47.9165 24.335 47.7362C24.29 47.6203 24.2514 47.5109 24.2127 47.395C24.1805 47.279 24.1483 47.1696 24.1226 47.0537C24.1161 47.0343 24.1161 47.0215 24.1161 47.0022C24.0968 46.9056 24.084 46.809 24.0711 46.7059C24.0582 46.6287 24.0518 46.5578 24.0518 46.487V46.3518C24.0518 44.8707 25.0112 43.3961 26.9559 42.2692L56.3385 25.1922C60.2278 22.932 66.577 22.932 70.4921 25.1922C72.4625 26.332 73.4477 27.8259 73.4412 29.3198Z" fill="url(#paint1_linear_221_1653)"/>
        <path d="M129.693 16.8418V16.8804C129.693 16.8804 129.687 16.9191 129.681 16.9384C129.681 16.9062 129.693 16.874 129.693 16.8418Z" fill="url(#paint2_linear_221_1653)"/>
        <path d="M129.693 16.8809L129.667 26.2823C129.667 26.2823 129.635 26.2694 129.616 26.2694C129.378 26.1986 129.139 26.1277 128.901 26.0633C128.36 25.9152 127.819 25.7736 127.272 25.6319C127.047 25.5739 126.815 25.516 126.583 25.4709C126.267 25.3872 125.952 25.3164 125.63 25.2455L126.589 23.2815L129.642 17.0483C129.661 17.0097 129.674 16.9775 129.68 16.9388C129.68 16.9195 129.693 16.9002 129.693 16.8809Z" fill="url(#paint3_linear_221_1653)"/>
        <path d="M142.36 68.0868L138.921 70.083L138.148 70.5338L117.613 82.4658L96.7499 94.591C92.5515 97.0315 85.7193 97.0315 81.4951 94.591L76.408 91.6547L62.1707 99.9293L60.8507 100.696C60.7091 100.773 60.5674 100.857 60.4193 100.927C60.2712 101.005 60.1231 101.082 59.9685 101.146C59.7882 101.236 59.6015 101.314 59.4083 101.391C59.2345 101.462 59.0541 101.526 58.8674 101.591C58.7772 101.623 58.6871 101.655 58.5905 101.681C57.747 101.951 56.839 102.144 55.9117 102.26C55.6992 102.286 55.4868 102.305 55.2743 102.325C55.0875 102.344 54.9008 102.357 54.7076 102.363C54.5852 102.37 54.4629 102.376 54.3406 102.383C53.9285 102.396 53.5163 102.396 53.1042 102.383C53.0785 102.383 53.0463 102.383 53.0205 102.376C52.9046 102.37 52.7951 102.363 52.6792 102.357C52.1319 102.325 51.5909 102.26 51.0629 102.177C50.7925 102.138 50.5285 102.086 50.2709 102.028C50.0326 101.977 49.8008 101.925 49.569 101.861C49.5433 101.855 49.5111 101.848 49.4789 101.835C49.2664 101.777 49.0539 101.713 48.8414 101.642C48.7577 101.616 48.674 101.591 48.5902 101.558C48.4808 101.52 48.3778 101.481 48.2747 101.442C48.1717 101.404 48.0751 101.365 47.9785 101.327C47.8047 101.256 47.6308 101.178 47.4634 101.101C47.399 101.069 47.3282 101.037 47.2638 100.998C47.0706 100.908 46.8839 100.805 46.7036 100.702C46.5812 100.631 46.4588 100.56 46.3494 100.483C46.1176 100.335 45.8986 100.187 45.699 100.032C45.4994 99.8713 45.3191 99.7103 45.1517 99.5429C45.0358 99.427 44.9263 99.3111 44.8233 99.1952C44.7202 99.0793 44.6236 98.9634 44.5399 98.841C44.4626 98.7315 44.3854 98.6221 44.321 98.5126C44.3081 98.4997 44.3016 98.4868 44.2952 98.474C44.2823 98.4546 44.2695 98.4289 44.263 98.4095C44.2115 98.3258 44.1665 98.2421 44.1214 98.152C44.115 98.1391 44.1085 98.1262 44.1021 98.1134C44.1021 98.1134 44.1021 98.1069 44.0956 98.1005C44.0634 98.0232 44.0312 97.9459 44.0055 97.8687C43.9797 97.8107 43.9604 97.7592 43.9411 97.7012C43.9346 97.6755 43.9217 97.6562 43.9217 97.6304C43.8895 97.5403 43.8638 97.4437 43.8445 97.3535C43.8187 97.2698 43.8059 97.1732 43.793 97.0895C43.7866 97.0766 43.7865 97.0702 43.7865 97.0573C43.7801 96.9994 43.7736 96.9414 43.7672 96.877C43.7672 96.7804 43.7543 96.6838 43.7543 96.5872C43.7543 95.1062 44.7202 93.6316 46.6585 92.5047L52.7179 88.9824L62.2159 83.4639L52.75 78.0034L38.5063 86.2843L37.1927 87.0442C36.0916 87.6817 34.7908 88.1453 33.4064 88.4222C32.3696 88.6283 31.2878 88.7313 30.206 88.7377C27.6174 88.7442 25.016 88.1775 23.0391 87.0377C22.8846 86.9476 22.7364 86.8574 22.5947 86.7673C22.3114 86.5806 22.0539 86.3874 21.8221 86.1877C21.6997 86.0847 21.5902 85.9817 21.4872 85.8787C20.5599 84.9707 20.0963 83.9469 20.0898 82.923C20.0898 81.4484 21.0557 79.9674 22.994 78.8405L23.9857 78.261L30.2511 74.6227L33.4514 72.7618L38.5514 69.7997L33.4708 66.8698C31.3522 65.6463 30.2898 64.0429 30.2833 62.4331C30.2833 60.8426 31.3265 59.2457 33.4193 58.0286L41.1464 53.5404L70.529 36.4634L73.4267 34.7763L79.0224 31.5244L81.5016 32.954L108.927 48.7947L112.455 50.8231L112.842 51.0549L116.132 52.9545L116.37 53.0833L138.161 65.6721L138.934 66.1164L142.36 68.0933V68.0868Z" fill="url(#paint4_linear_221_1653)"/>
        <path d="M145.662 48.5865C145.662 49.1339 145.302 49.6877 144.581 50.1062C143.132 50.9434 140.762 50.9434 139.307 50.1062C139.184 50.0354 139.075 49.9646 138.978 49.8873C138.367 49.4237 138.122 48.857 138.238 48.3161C138.251 48.226 138.283 48.1358 138.322 48.0521C138.437 47.7688 138.663 47.4919 138.985 47.2536C139.075 47.1828 139.178 47.112 139.287 47.0476C140.344 46.4358 141.889 46.2684 143.209 46.5517C143.705 46.6548 144.162 46.8222 144.561 47.054C145.295 47.4725 145.662 48.0328 145.662 48.5865Z" fill="white"/>
        <path d="M156.037 78.3438V78.3566C156.018 78.4082 155.998 78.4597 155.973 78.5047C155.992 78.4532 156.018 78.4017 156.037 78.3438Z" fill="url(#paint5_linear_221_1653)"/>
        <path d="M129.683 16.9384C129.683 16.9384 129.695 16.8997 129.695 16.8804V16.8418C129.695 16.8418 129.689 16.9062 129.683 16.9384Z" fill="url(#paint6_linear_221_1653)"/>
        <path d="M168.943 39.2833C168.878 39.1481 168.743 39.0257 168.576 38.9292C168.222 38.7295 167.694 38.6329 167.178 38.7231L156.425 40.5068L153.044 41.0735C152.825 40.7579 152.606 40.436 152.362 40.1205C152.13 39.8049 151.879 39.4894 151.615 39.1739C149.341 36.4178 146.193 33.8099 142.187 31.4982C138.401 29.3088 134.151 27.5702 129.669 26.2824C129.657 26.2824 129.637 26.2695 129.618 26.2695C129.38 26.1987 129.141 26.1278 128.903 26.0634C128.362 25.9153 127.821 25.7737 127.274 25.632C127.049 25.574 126.817 25.5161 126.585 25.471C126.269 25.3873 125.954 25.3165 125.632 25.2456L126.591 23.2816L129.644 17.0484C129.663 17.0098 129.676 16.9776 129.682 16.9389C129.682 16.9067 129.695 16.8745 129.695 16.8423V16.8294C129.695 16.6041 129.547 16.3916 129.277 16.237C129.109 16.1404 128.903 16.0696 128.658 16.031C127.905 15.9086 127.119 16.1598 126.9 16.5912L123.893 22.7472L122.934 24.7047C122.367 24.5953 121.807 24.5051 121.24 24.415C120.674 24.3184 120.101 24.2346 119.534 24.1574C109.302 22.7922 98.6577 23.5328 89.7457 26.4434C86.79 27.4157 84.0147 28.6263 81.5098 30.0751L108.941 45.9094L112.464 47.9442L112.856 48.1696L116.147 50.0692L116.379 50.2044L125.548 55.4975L126.018 55.768L138.169 62.7804L138.942 63.2311L144.847 66.6375C145.104 66.483 145.362 66.3349 145.613 66.1739C147.77 64.8474 149.593 63.3986 151.087 61.8596C151.409 61.5247 151.718 61.1899 152.001 60.8422C152.754 59.9664 153.398 59.0649 153.939 58.1441C154.564 57.0945 155.047 56.0256 155.401 54.9309C155.472 54.7248 155.53 54.5187 155.588 54.3127C155.935 53.057 156.109 51.782 156.116 50.4942C156.122 48.5366 155.723 46.5533 154.931 44.6022C154.796 44.2738 154.654 43.939 154.493 43.6106C154.338 43.2821 154.171 42.9537 153.984 42.6318L157.365 42.0651L167.97 40.3072C168.344 40.2428 168.64 40.1076 168.82 39.9144C168.943 39.792 169.001 39.6568 169.001 39.5152C169.001 39.4379 168.981 39.3606 168.943 39.2833ZM116.192 32.4641C116.018 32.7474 115.735 33.005 115.348 33.2304C115.239 33.2948 115.123 33.3527 115.001 33.4043C114.376 33.6876 113.642 33.8357 112.895 33.855C112.76 33.8614 112.631 33.8614 112.502 33.855C111.62 33.8292 110.751 33.6167 110.081 33.2304C109.379 32.8247 109.006 32.2902 108.98 31.7622C108.967 31.5948 108.993 31.4338 109.044 31.2793C109.083 31.1698 109.128 31.0603 109.199 30.9573C109.218 30.9122 109.25 30.8736 109.283 30.8349C109.315 30.7834 109.353 30.7384 109.398 30.6933C109.45 30.6353 109.508 30.5774 109.572 30.5194C109.611 30.4808 109.656 30.4486 109.701 30.41C109.753 30.3713 109.804 30.3327 109.862 30.2941C109.92 30.2554 109.984 30.2103 110.055 30.1717C111.51 29.3282 113.874 29.3346 115.335 30.1782C115.728 30.4035 116.024 30.674 116.198 30.9637C116.353 31.2084 116.43 31.466 116.43 31.7171C116.43 31.9683 116.353 32.2259 116.192 32.4641ZM144.583 50.1078C143.134 50.9449 140.764 50.9449 139.309 50.1078C139.187 50.037 139.077 49.9662 138.981 49.8889C138.369 49.4253 138.124 48.8586 138.24 48.3177C138.253 48.2275 138.285 48.1374 138.324 48.0537C138.44 47.7704 138.665 47.4934 138.987 47.2552C139.077 47.1844 139.18 47.1136 139.29 47.0492C140.346 46.4374 141.891 46.27 143.211 46.5533C143.707 46.6564 144.164 46.8238 144.564 47.0556C145.298 47.4741 145.665 48.0343 145.665 48.5881C145.665 49.1419 145.304 49.6893 144.583 50.1078Z" fill="url(#paint7_linear_221_1653)"/>
        <path d="M116.43 31.7169C116.43 31.9744 116.352 32.2256 116.191 32.4638C116.018 32.7472 115.734 33.0047 115.348 33.2301C115.239 33.2945 115.123 33.3525 115 33.404C114.376 33.6873 113.642 33.8354 112.895 33.8547C112.759 33.8611 112.631 33.8611 112.502 33.8547C111.62 33.829 110.75 33.6165 110.081 33.2301C109.379 32.8244 109.005 32.29 108.979 31.7619V31.6911C108.979 31.5494 109.005 31.4142 109.044 31.279C109.083 31.1695 109.128 31.06 109.198 30.957C109.224 30.9184 109.25 30.8733 109.282 30.8347C109.314 30.7832 109.353 30.7381 109.398 30.693C109.45 30.6351 109.507 30.5771 109.572 30.5191C109.61 30.4805 109.656 30.4483 109.701 30.4097C109.752 30.3711 109.804 30.3324 109.862 30.2938C109.92 30.2552 109.984 30.2101 110.055 30.1714C111.51 29.3279 113.873 29.3343 115.335 30.1779C115.728 30.4033 116.024 30.6737 116.198 30.9635C116.352 31.2082 116.43 31.4657 116.43 31.7169Z" fill="white"/>
        <path d="M73.4406 29.3213L73.4278 34.769L70.5301 36.4561L41.1475 53.5331L33.4203 58.0213C31.3276 59.2383 30.2844 60.8353 30.2844 62.4258C30.2908 64.0356 31.3533 65.639 33.4718 66.8625L38.5524 69.7924L33.4525 72.7545L30.2522 74.6154L23.9867 78.2536C23.9674 78.1184 23.9609 77.9767 23.9609 77.8351L24.0511 46.4885C24.0511 46.5593 24.0576 46.6302 24.0704 46.7074C24.0769 46.804 24.0897 46.9071 24.1155 47.0037C24.1155 47.023 24.1155 47.0358 24.1219 47.0551C24.1412 47.1646 24.1734 47.2805 24.2121 47.3964C24.2443 47.5124 24.2829 47.6218 24.3344 47.7377C24.4117 47.918 24.5018 48.0983 24.6113 48.2786C24.6628 48.3688 24.7208 48.4589 24.7852 48.5426C24.8625 48.6521 24.9462 48.7616 25.0363 48.871C25.12 48.9805 25.2166 49.0835 25.3261 49.1866C25.3905 49.2574 25.4613 49.3282 25.5322 49.3926C25.5837 49.4441 25.648 49.5021 25.706 49.5536C25.8026 49.6373 25.8992 49.721 25.9958 49.7983C26.1954 49.9528 26.4079 50.1074 26.6397 50.2491C26.7492 50.3263 26.8715 50.3972 26.9938 50.468C30.9154 52.7282 37.2581 52.7282 41.1539 50.468L70.5365 33.3909C70.691 33.3008 70.8327 33.2171 70.9744 33.1205C71.071 33.0561 71.1611 32.9917 71.2513 32.9273C71.3479 32.8629 71.438 32.7921 71.5217 32.7213C71.7149 32.5667 71.8951 32.4121 72.0626 32.2447C72.1463 32.1675 72.2236 32.0837 72.3009 32C72.3782 31.9163 72.449 31.8262 72.5198 31.7425C72.5906 31.6523 72.655 31.5686 72.7129 31.4849C72.7773 31.3947 72.8289 31.311 72.8868 31.2209C72.9899 31.047 73.08 30.8667 73.1509 30.6929C73.1831 30.622 73.2088 30.5576 73.2281 30.4868C73.2474 30.4417 73.2667 30.3902 73.2796 30.3387C73.3311 30.1906 73.3698 30.0296 73.3891 29.8751C73.3955 29.8493 73.3956 29.83 73.402 29.8042C73.402 29.7978 73.4084 29.7978 73.402 29.7913C73.4278 29.6368 73.4406 29.4758 73.4406 29.3213Z" fill="url(#paint8_linear_221_1653)"/>
        <path d="M168.999 39.5158L168.909 71.0105C168.909 71.1522 168.851 71.2874 168.729 71.4097C168.549 71.6029 168.252 71.7381 167.879 71.8025L157.273 73.5605L156.05 73.7665V75.9237C155.799 75.2476 155.341 74.5843 154.678 73.9919C154.44 73.773 154.182 73.5669 153.893 73.3802C153.712 73.2449 153.519 73.1226 153.313 73.0067C152.624 72.6139 151.864 72.2855 151.053 72.0344C149.366 71.4935 147.473 71.2616 145.599 71.3325C145.341 71.3389 145.084 71.3518 144.832 71.3775C143.983 71.4419 143.145 71.5707 142.347 71.7639C141.181 72.0472 140.093 72.4594 139.153 73.0067L138.908 73.1483L138.142 73.5927L120.254 83.9922L109.77 90.0837C107.832 91.2106 106.866 92.6917 106.866 94.1727L106.789 120.2L96.6665 126.086C92.4616 128.526 85.6295 128.526 81.4053 126.086L76.3247 123.15L60.7609 132.19C56.878 134.451 50.5288 134.451 46.6202 132.19C44.6433 131.051 43.658 129.557 43.6645 128.063L43.7031 114.695L37.1028 118.533C33.2135 120.793 26.8644 120.786 22.9557 118.526C20.9853 117.393 20 115.893 20 114.399L20.0902 82.9168C20.0966 83.9406 20.5603 84.9645 21.4875 85.8724C21.5905 85.9755 21.7 86.0785 21.8224 86.1815C22.0542 86.3811 22.3117 86.5743 22.5951 86.7611C22.7367 86.8512 22.8849 86.9414 23.0394 87.0315C25.0163 88.1713 27.6177 88.7379 30.2063 88.7315C31.2881 88.7251 32.37 88.622 33.4067 88.416C34.7911 88.1391 36.0919 87.6754 37.193 87.038L38.5066 86.2781L52.7503 77.9972L62.2162 83.4577L52.7182 88.9762L46.6588 92.4985C44.7205 93.6254 43.7546 95.1 43.7546 96.581C43.7546 96.6776 43.7611 96.7742 43.7675 96.8708C43.774 96.9352 43.7804 96.9931 43.7869 97.0511C43.7869 97.0639 43.7869 97.0704 43.7933 97.0833C43.8062 97.167 43.819 97.2636 43.8448 97.3473C43.8641 97.4374 43.8899 97.534 43.9221 97.6242C43.9221 97.6499 43.935 97.6693 43.9414 97.695C43.9607 97.753 43.98 97.8045 44.0058 97.8624C44.0315 97.9397 44.0637 98.017 44.0959 98.0942C44.1024 98.1007 44.1024 98.1071 44.1024 98.1071C44.1088 98.12 44.1153 98.1329 44.1217 98.1458C44.1668 98.2359 44.2118 98.3196 44.2634 98.4034C44.2698 98.4227 44.2826 98.4484 44.2955 98.4677C44.302 98.4806 44.3084 98.4935 44.3213 98.5064C44.3857 98.6158 44.4629 98.7253 44.5402 98.8348C44.6239 98.9571 44.7206 99.073 44.8236 99.1889C44.9202 99.3048 45.0296 99.4207 45.152 99.5366C45.3194 99.7041 45.4997 99.8651 45.6993 100.026C45.8989 100.181 46.1179 100.335 46.3497 100.477C46.4592 100.554 46.5815 100.625 46.7039 100.696C46.8842 100.799 47.0709 100.902 47.2641 100.992C47.3285 101.031 47.3993 101.063 47.4637 101.095C47.6311 101.172 47.805 101.25 47.9789 101.32C48.0754 101.359 48.172 101.398 48.275 101.436C48.3781 101.475 48.4811 101.514 48.5906 101.552C48.6743 101.584 48.758 101.61 48.8417 101.636C49.0542 101.707 49.2667 101.771 49.4792 101.829C49.5114 101.842 49.5436 101.848 49.5693 101.855C49.8012 101.919 50.033 101.971 50.2712 102.022C50.5288 102.08 50.7928 102.132 51.0632 102.17C51.5913 102.254 52.1322 102.318 52.6795 102.351C52.7954 102.357 52.9049 102.364 53.0208 102.37C53.0466 102.376 53.0788 102.376 53.1045 102.376C53.5166 102.396 53.9288 102.396 54.3409 102.376C54.4632 102.376 54.5856 102.364 54.7079 102.357C54.9011 102.351 55.0878 102.338 55.2746 102.318C55.4871 102.306 55.6996 102.28 55.9121 102.254C56.8393 102.138 57.7473 101.945 58.5908 101.674C58.6874 101.649 58.7775 101.617 58.8677 101.584C59.0544 101.52 59.2348 101.456 59.4086 101.385C59.6018 101.307 59.7886 101.23 59.9689 101.14C60.1234 101.076 60.2715 100.998 60.4196 100.921C60.5677 100.85 60.7094 100.767 60.851 100.689L62.171 99.923L76.4084 91.6485L81.4954 94.5848C85.7196 97.0253 92.5518 97.0253 96.7502 94.5848L117.614 82.4596L138.148 70.5275L138.921 70.0768L142.36 68.0806L138.934 66.1037L138.161 65.6594L116.371 53.0706L116.133 52.9418L112.842 51.0422L112.456 50.8104L108.927 48.782L81.5019 32.9413V30.0693L108.94 45.9036L112.462 47.9384L112.855 48.1638L116.145 50.0634L116.377 50.1986L125.547 55.4918L126.017 55.7622L138.168 62.7746L138.941 63.2254L144.845 66.6318C145.103 66.4772 145.361 66.3291 145.612 66.1681C147.769 64.8416 149.591 63.3928 151.085 61.8538C151.407 61.519 151.716 61.1841 151.999 60.8364C152.753 59.9606 153.397 59.0591 153.938 58.1383C154.562 57.0887 155.045 56.0198 155.399 54.9251C155.47 54.719 155.528 54.513 155.586 54.3069C155.934 53.0513 156.108 51.7763 156.114 50.4884C156.121 48.5309 155.721 46.5475 154.929 44.5964C154.794 44.268 154.652 43.9332 154.491 43.6048C154.337 43.2764 154.17 42.948 153.983 42.626L157.363 42.0594L167.969 40.3014C168.342 40.237 168.639 40.1018 168.819 39.9086C168.941 39.7863 168.999 39.6511 168.999 39.5094V39.5158Z" fill="url(#paint9_linear_221_1653)"/>
        <path d="M156.038 78.3428V78.3557C156.019 78.4072 155.999 78.4587 155.974 78.5038C155.993 78.4522 156.019 78.4007 156.038 78.3428Z" fill="url(#paint10_linear_221_1653)"/>
        <path d="M156.257 77.1328V77.2873C156.257 77.3324 156.251 77.3711 156.244 77.4097C156.244 77.3195 156.257 77.223 156.257 77.1328Z" fill="url(#paint11_linear_221_1653)"/>
        <path d="M156.257 77.2871L156.173 108.627C156.173 110.108 155.201 111.576 153.269 112.703L123.887 129.78C119.991 132.041 113.642 132.034 109.727 129.78C107.756 128.641 106.777 127.14 106.777 125.646L106.79 120.199L106.868 94.171C106.868 94.2676 106.868 94.3642 106.88 94.4607C106.887 94.5187 106.893 94.5831 106.906 94.6475C106.906 94.7441 106.932 94.8407 106.958 94.9373C106.977 95.0274 107.003 95.124 107.035 95.2142C107.035 95.2399 107.048 95.2592 107.054 95.285C107.074 95.3558 107.106 95.4267 107.132 95.4975C107.164 95.5748 107.196 95.652 107.235 95.7293C107.286 95.8323 107.338 95.9354 107.402 96.0384C107.479 96.18 107.576 96.3217 107.679 96.457C107.756 96.5664 107.846 96.6759 107.936 96.7789C108.033 96.8948 108.143 97.0107 108.265 97.1266C108.432 97.294 108.619 97.455 108.812 97.616C109.018 97.7706 109.231 97.9251 109.463 98.0668C109.572 98.1441 109.694 98.2149 109.817 98.2857C113.732 100.539 120.081 100.546 123.97 98.2857L134.46 92.1877L142.303 87.6351L144.789 86.1862L151.028 82.5609L153.359 81.2087C153.604 81.067 153.829 80.9189 154.035 80.7708C154.145 80.6935 154.248 80.6162 154.345 80.539C154.493 80.423 154.634 80.3071 154.763 80.1784C154.802 80.1462 154.847 80.1075 154.886 80.0625C155.053 79.9015 155.207 79.7341 155.343 79.5602C155.414 79.4701 155.478 79.3863 155.536 79.3026C155.652 79.1288 155.761 78.9549 155.851 78.7746C155.896 78.6844 155.935 78.5943 155.974 78.5041C155.999 78.4591 156.019 78.4076 156.038 78.3561V78.3432C156.057 78.3045 156.07 78.2723 156.077 78.2337C156.109 78.1436 156.135 78.0534 156.154 77.9632C156.18 77.8666 156.199 77.7765 156.212 77.6863C156.225 77.5962 156.238 77.4996 156.244 77.4095C156.244 77.3708 156.257 77.3322 156.257 77.2871Z" fill="url(#paint12_linear_221_1653)"/>
        <path d="M156.258 77.1326C156.258 77.2228 156.251 77.3193 156.245 77.4095C156.238 77.4996 156.225 77.5962 156.213 77.6864C156.2 77.7765 156.18 77.8667 156.155 77.9633C156.135 78.0534 156.11 78.1436 156.077 78.2337C156.071 78.2724 156.058 78.3046 156.039 78.3368C156.019 78.4011 155.994 78.4527 155.974 78.5042C155.936 78.5943 155.897 78.6845 155.852 78.7746C155.762 78.9549 155.652 79.1288 155.536 79.3027C155.479 79.3864 155.414 79.4701 155.343 79.5602C155.208 79.7341 155.054 79.9015 154.886 80.0625C154.848 80.1076 154.802 80.1462 154.764 80.1784C154.635 80.3072 154.493 80.4231 154.345 80.539C154.249 80.6163 154.146 80.6936 154.036 80.7708C153.83 80.9189 153.605 81.067 153.36 81.2087L151.029 82.5609L144.789 86.1863L142.304 87.6351L134.461 92.1877L123.971 98.2857C120.082 100.546 113.732 100.539 109.817 98.2857C109.695 98.2149 109.573 98.1441 109.463 98.0668C109.231 97.9252 109.019 97.7706 108.813 97.6161C108.62 97.4551 108.433 97.2941 108.266 97.1267C108.15 97.0108 108.04 96.8949 107.937 96.779C107.847 96.6759 107.757 96.5665 107.68 96.457C107.576 96.3218 107.48 96.1801 107.403 96.0384C107.338 95.9354 107.287 95.8324 107.235 95.7293C107.197 95.6521 107.164 95.5748 107.132 95.4975C107.106 95.4267 107.074 95.3559 107.055 95.285C107.048 95.2593 107.036 95.24 107.036 95.2142C107.003 95.1241 106.978 95.0275 106.958 94.9373C106.933 94.8407 106.913 94.7441 106.907 94.6475C106.894 94.5832 106.887 94.5187 106.881 94.4608C106.875 94.3642 106.868 94.2676 106.868 94.171C106.868 92.69 107.834 91.2089 109.772 90.0821L120.256 83.9905L138.144 73.591L138.91 73.1467L139.155 73.005C140.095 72.4577 141.183 72.0455 142.349 71.7622C143.147 71.569 143.984 71.4403 144.834 71.3759C145.085 71.3501 145.343 71.3372 145.601 71.3308C147.474 71.2599 149.368 71.4918 151.055 72.0327C151.866 72.2838 152.626 72.6122 153.315 73.005C153.521 73.1209 153.714 73.2433 153.894 73.3785C154.184 73.5652 154.442 73.7713 154.68 73.9902C155.343 74.5826 155.8 75.2459 156.045 75.922C156.193 76.347 156.258 76.7656 156.251 77.1906C156.251 77.1713 156.258 77.1519 156.258 77.1326Z" fill="url(#paint13_linear_221_1653)"/>
        <path d="M156.039 78.3438V78.3566C156.02 78.4082 156 78.4597 155.975 78.5047C155.994 78.4532 156.02 78.4017 156.039 78.3438Z" fill="url(#paint14_linear_221_1653)"/>
        <path d="M156.257 77.1328V77.2873C156.257 77.3324 156.251 77.3711 156.244 77.4097C156.244 77.3195 156.257 77.223 156.257 77.1328Z" fill="url(#paint15_linear_221_1653)"/>
    </g>
    <defs>
        <filter id="filter0_d_221_1653" x="0" y="0" width="189.001" height="157.886" filterUnits="userSpaceOnUse" color-interpolation-filters="sRGB">
            <feFlood flood-opacity="0" result="BackgroundImageFix"/>
            <feColorMatrix in="SourceAlpha" type="matrix" values="0 0 0 0 0 0 0 0 0 0 0 0 0 0 0 0 0 0 127 0" result="hardAlpha"/>
            <feOffset dy="4"/>
            <feGaussianBlur stdDeviation="10"/>
            <feComposite in2="hardAlpha" operator="out"/>
            <feColorMatrix type="matrix" values="0 0 0 0 0.751406 0 0 0 0 0.844566 0 0 0 0 0.954167 0 0 0 1 0"/>
            <feBlend mode="normal" in2="BackgroundImageFix" result="effect1_dropShadow_221_1653"/>
            <feBlend mode="normal" in="SourceGraphic" in2="effect1_dropShadow_221_1653" result="shape"/>
        </filter>
        <linearGradient id="paint0_linear_221_1653" x1="24.0614" y1="46.4092" x2="24.0614" y2="46.7054" gradientUnits="userSpaceOnUse">
            <stop offset="0.458333" stop-color="#5FB0DD"/>
            <stop offset="1" stop-color="#7DD1FF"/>
        </linearGradient>
        <linearGradient id="paint1_linear_221_1653" x1="48.7465" y1="23.4971" x2="48.7465" y2="52.1617" gradientUnits="userSpaceOnUse">
            <stop offset="0.458333" stop-color="#5FB0DD"/>
            <stop offset="1" stop-color="#7DD1FF"/>
        </linearGradient>
        <linearGradient id="paint2_linear_221_1653" x1="129.687" y1="16.8418" x2="129.687" y2="16.9384" gradientUnits="userSpaceOnUse">
            <stop offset="0.458333" stop-color="#5FB0DD"/>
            <stop offset="1" stop-color="#7DD1FF"/>
        </linearGradient>
        <linearGradient id="paint3_linear_221_1653" x1="127.661" y1="16.8809" x2="127.661" y2="26.2823" gradientUnits="userSpaceOnUse">
            <stop stop-color="#ABDEFF"/>
            <stop offset="1" stop-color="#F2F2F2"/>
        </linearGradient>
        <linearGradient id="paint4_linear_221_1653" x1="81.2247" y1="31.5244" x2="81.2247" y2="102.392" gradientUnits="userSpaceOnUse">
            <stop offset="0.458333" stop-color="#5FB0DD"/>
            <stop offset="1" stop-color="#7DD1FF"/>
        </linearGradient>
        <linearGradient id="paint5_linear_221_1653" x1="156.005" y1="78.3438" x2="156.005" y2="78.5047" gradientUnits="userSpaceOnUse">
            <stop offset="0.458333" stop-color="#5FB0DD"/>
            <stop offset="1" stop-color="#7DD1FF"/>
        </linearGradient>
        <linearGradient id="paint6_linear_221_1653" x1="129.689" y1="16.8418" x2="129.689" y2="16.9384" gradientUnits="userSpaceOnUse">
            <stop offset="0.458333" stop-color="#5FB0DD"/>
            <stop offset="1" stop-color="#7DD1FF"/>
        </linearGradient>
        <linearGradient id="paint7_linear_221_1653" x1="125.255" y1="16" x2="125.255" y2="66.6375" gradientUnits="userSpaceOnUse">
            <stop offset="0.458333" stop-color="#5FB0DD"/>
            <stop offset="1" stop-color="#7DD1FF"/>
        </linearGradient>
        <linearGradient id="paint8_linear_221_1653" x1="48.7008" y1="29.3213" x2="48.7008" y2="78.2536" gradientUnits="userSpaceOnUse">
            <stop stop-color="#ABDEFF"/>
            <stop offset="1" stop-color="#F2F2F2"/>
        </linearGradient>
        <linearGradient id="paint9_linear_221_1653" x1="94.4996" y1="30.0693" x2="94.4996" y2="133.886" gradientUnits="userSpaceOnUse">
            <stop stop-color="#ABDEFF"/>
            <stop offset="1" stop-color="#F2F2F2"/>
        </linearGradient>
        <linearGradient id="paint10_linear_221_1653" x1="156.006" y1="78.3428" x2="156.006" y2="78.5038" gradientUnits="userSpaceOnUse">
            <stop offset="0.458333" stop-color="#5FB0DD"/>
            <stop offset="1" stop-color="#7DD1FF"/>
        </linearGradient>
        <linearGradient id="paint11_linear_221_1653" x1="156.251" y1="77.1328" x2="156.251" y2="77.4097" gradientUnits="userSpaceOnUse">
            <stop offset="0.458333" stop-color="#5FB0DD"/>
            <stop offset="1" stop-color="#7DD1FF"/>
        </linearGradient>
        <linearGradient id="paint12_linear_221_1653" x1="131.517" y1="77.2871" x2="131.517" y2="131.473" gradientUnits="userSpaceOnUse">
            <stop stop-color="#ABDEFF"/>
            <stop offset="1" stop-color="#F2F2F2"/>
        </linearGradient>
        <linearGradient id="paint13_linear_221_1653" x1="131.563" y1="71.3184" x2="131.563" y2="99.9785" gradientUnits="userSpaceOnUse">
            <stop offset="0.458333" stop-color="#5FB0DD"/>
            <stop offset="1" stop-color="#7DD1FF"/>
        </linearGradient>
        <linearGradient id="paint14_linear_221_1653" x1="156.007" y1="78.3438" x2="156.007" y2="78.5047" gradientUnits="userSpaceOnUse">
            <stop offset="0.458333" stop-color="#5FB0DD"/>
            <stop offset="1" stop-color="#7DD1FF"/>
        </linearGradient>
        <linearGradient id="paint15_linear_221_1653" x1="156.251" y1="77.1328" x2="156.251" y2="77.4097" gradientUnits="userSpaceOnUse">
            <stop offset="0.458333" stop-color="#5FB0DD"/>
            <stop offset="1" stop-color="#7DD1FF"/>
        </linearGradient>
    </defs>
</svg>
