<svg width="243" height="196" viewBox="0 0 243 196" fill="none" xmlns="http://www.w3.org/2000/svg">
    <g opacity="0.6" filter="url(#filter0_d_221_1220)">
        <path d="M184.799 59.0029L184.78 67.2462C184.26 67.1706 183.731 67.0949 183.201 67.0288C183.598 66.0362 183.929 65.0341 184.175 64.0226C184.26 63.6823 184.336 63.3514 184.402 63.0111C184.468 62.6708 184.525 62.3399 184.572 61.9996C184.629 61.6592 184.666 61.319 184.695 60.9786C184.77 60.3264 184.799 59.6647 184.799 59.0029Z" fill="url(#paint0_linear_221_1220)"/>
        <path d="M222.792 95.758L222.66 141.994C222.632 149.453 217.735 156.892 207.951 162.583C207.79 162.678 207.639 162.763 207.468 162.848C187.739 174.031 156.052 173.937 136.38 162.583L31.9679 102.3C23.9799 97.6864 19.9906 91.6364 20 85.5863L20.1324 39.3975C20.1324 45.4287 24.1216 51.4599 32.0908 56.0636L136.512 116.347C156.184 127.701 187.872 127.795 207.601 116.612C207.771 116.527 207.922 116.442 208.083 116.347C211.458 114.39 214.246 112.216 216.449 109.919C216.77 109.588 217.082 109.248 217.366 108.907C218.935 107.121 220.164 105.249 221.043 103.349C221.157 103.122 221.261 102.886 221.346 102.659C221.639 101.978 221.885 101.288 222.083 100.598C222.197 100.192 222.301 99.7946 222.395 99.3881C222.48 98.991 222.556 98.5845 222.613 98.1875C222.641 97.9701 222.66 97.762 222.688 97.5541C222.764 96.9491 222.792 96.3536 222.792 95.758Z" fill="url(#paint1_linear_221_1220)"/>
        <path d="M222.689 97.5534C222.66 97.7614 222.641 97.9694 222.613 98.1869C222.547 98.5839 222.481 98.981 222.396 99.3874C222.301 99.7939 222.197 100.191 222.084 100.597C221.885 101.288 221.639 101.978 221.346 102.658C221.252 102.885 221.148 103.121 221.044 103.348C220.165 105.248 218.936 107.12 217.366 108.907C217.083 109.247 216.771 109.588 216.449 109.918C214.247 112.216 211.458 114.39 208.083 116.347C207.923 116.441 207.771 116.526 207.601 116.611C187.872 127.795 156.185 127.7 136.512 116.347L32.0912 56.063C24.1221 51.4593 20.1328 45.428 20.1328 39.3968C20.1328 33.3656 24.056 27.4383 31.9116 22.8724C34.1899 21.5489 36.695 20.4051 39.3325 19.4692C54.921 13.9012 75.6331 15.0356 89.2081 22.8724C91.562 24.2336 93.566 25.7179 95.2298 27.2966C118.258 20.3862 147.308 22.5321 166.716 33.7437C178.797 40.7202 184.828 49.8711 184.8 59.003C184.8 59.6647 184.771 60.3264 184.696 60.9787C184.668 61.319 184.63 61.6593 184.573 61.9996C184.526 62.3399 184.469 62.6708 184.403 63.0112C184.337 63.342 184.261 63.6823 184.176 64.0226C183.93 65.0341 183.599 66.0362 183.202 67.0288C183.732 67.095 184.261 67.1706 184.781 67.2462C193.223 68.513 201.23 71.0653 207.847 74.8939C218.614 81.1142 223.568 89.4236 222.689 97.5534Z" fill="url(#paint2_linear_221_1220)"/>
    </g>
    <defs>
        <filter id="filter0_d_221_1220" x="0" y="0" width="242.792" height="195.168" filterUnits="userSpaceOnUse" color-interpolation-filters="sRGB">
            <feFlood flood-opacity="0" result="BackgroundImageFix"/>
            <feColorMatrix in="SourceAlpha" type="matrix" values="0 0 0 0 0 0 0 0 0 0 0 0 0 0 0 0 0 0 127 0" result="hardAlpha"/>
            <feOffset dy="4"/>
            <feGaussianBlur stdDeviation="10"/>
            <feComposite in2="hardAlpha" operator="out"/>
            <feColorMatrix type="matrix" values="0 0 0 0 0.751406 0 0 0 0 0.844566 0 0 0 0 0.954167 0 0 0 1 0"/>
            <feBlend mode="normal" in2="BackgroundImageFix" result="effect1_dropShadow_221_1220"/>
            <feBlend mode="normal" in="SourceGraphic" in2="effect1_dropShadow_221_1220" result="shape"/>
        </filter>
        <linearGradient id="paint0_linear_221_1220" x1="184" y1="59.0029" x2="184" y2="67.2462" gradientUnits="userSpaceOnUse">
            <stop stop-color="#ABDEFF"/>
            <stop offset="1" stop-color="#F2F2F2"/>
        </linearGradient>
        <linearGradient id="paint1_linear_221_1220" x1="121.396" y1="39.3975" x2="121.396" y2="171.167" gradientUnits="userSpaceOnUse">
            <stop stop-color="#ABDEFF"/>
            <stop offset="1" stop-color="#F2F2F2"/>
        </linearGradient>
        <linearGradient id="paint2_linear_221_1220" x1="121.46" y1="16" x2="121.46" y2="124.931" gradientUnits="userSpaceOnUse">
            <stop offset="0.458333" stop-color="#5FB0DD"/>
            <stop offset="1" stop-color="#7DD1FF"/>
        </linearGradient>
    </defs>
</svg>
