<svg width="286" height="231" viewBox="0 0 286 231" fill="none" xmlns="http://www.w3.org/2000/svg">
    <g opacity="0.6" filter="url(#filter0_d_221_1174)">
        <path d="M77.8469 28.1382L77.7884 48.5899C77.7884 48.5899 77.7202 48.6191 77.6909 48.6386L77.7494 27.7676C77.7494 27.8261 77.7592 27.8845 77.7787 27.9333C77.7884 28.0016 77.8177 28.0699 77.8469 28.1382Z" fill="#FFCB4C"/>
        <path d="M85.0637 43.5677V44.4454C84.898 44.7868 84.5663 45.0989 84.0689 45.3232C81.9136 46.3473 79.8167 47.4396 77.7881 48.5904L77.8466 28.1387L85.0637 43.5677Z" fill="url(#paint0_linear_221_1174)"/>
        <path d="M85.16 44.0033C85.16 44.1496 85.121 44.2959 85.0625 44.4422V43.5645C85.1308 43.7107 85.16 43.857 85.16 44.0033Z" fill="#FFCB4C"/>
        <path d="M250.932 53.6523V53.8093C250.932 53.8093 250.922 53.8582 250.913 53.8778C250.922 53.7994 250.932 53.721 250.932 53.6523Z" fill="#FFCB4C"/>
        <path d="M250.931 53.8066L250.853 82.1875L250.004 82.0509L237.15 80.0614C236.652 79.9834 236.204 79.8273 235.853 79.6225C235.414 79.3689 235.121 79.0471 235.014 78.6765C234.097 75.38 232.644 72.1128 230.645 68.9431V66.1343L250.082 54.8501C250.365 54.6941 250.57 54.4991 250.716 54.2943C250.755 54.2358 250.794 54.1675 250.823 54.0993H250.833C250.872 54.0115 250.892 53.9431 250.911 53.8749C250.921 53.8554 250.931 53.8261 250.931 53.8066Z" fill="url(#paint1_linear_221_1174)"/>
        <path d="M230.655 66.1338V68.9426C230.45 68.611 230.235 68.2794 230.011 67.9478C229.884 67.7528 229.806 67.5382 229.806 67.3236C229.806 67.2651 229.806 67.2164 229.826 67.1579C229.845 67.0506 229.884 66.9432 229.933 66.836C229.962 66.7677 230.011 66.7092 230.06 66.6507C230.099 66.5922 230.148 66.5336 230.196 66.4849C230.323 66.3581 230.479 66.2411 230.655 66.1338Z" fill="#FFCB4C"/>
        <path d="M56.3223 107.107C56.3223 107.546 56.0395 107.965 55.4835 108.287L48.9296 112.091L36.0558 119.571C35.4999 119.893 35.2073 120.322 35.2073 120.761L35.1488 139.935L22.2165 137.926C21.6996 137.848 21.251 137.692 20.8901 137.487C20.3732 137.194 20.0514 136.785 20.0319 136.336C20.0124 135.741 19.9928 135.137 20.0026 134.532L20.1391 87.1621C20.1391 87.6595 20.1489 88.1472 20.1684 88.6446C20.1879 89.0834 20.5097 89.4931 21.0266 89.7857C21.3875 90.0003 21.8362 90.1465 22.3531 90.2245L48.9784 94.3597C49.4758 94.4378 49.9244 94.5841 50.2755 94.7889C50.7144 95.0425 51.007 95.3741 51.1143 95.7349C52.1383 99.3825 53.8061 102.981 56.1175 106.473C56.254 106.678 56.3223 106.892 56.3223 107.107Z" fill="url(#paint2_linear_221_1174)"/>
        <path d="M208.292 147.153C208.351 147.016 208.39 146.88 208.39 146.733C208.39 146.88 208.36 147.016 208.292 147.153Z" fill="#FFCB4C"/>
        <path d="M266 87.748L265.864 135.293C265.844 140.95 264.664 146.597 262.343 152.117L261.134 154.75C258.218 160.651 253.975 166.366 248.377 171.75C247.704 172.393 246.368 172.686 245.12 172.5L218.465 168.365C217.353 168.19 216.163 168.424 215.432 168.941C213.442 170.365 211.306 171.75 209.034 173.076C208.8 173.212 208.556 173.349 208.312 173.476L208.39 146.733C208.39 146.577 208.351 146.431 208.283 146.275L201.066 130.856C200.998 130.709 200.968 130.563 200.968 130.427C200.968 130.339 200.978 130.261 200.998 130.183C200.998 130.173 201.007 130.154 201.007 130.144C201.007 130.134 201.017 130.124 201.017 130.114C201.027 130.075 201.046 130.027 201.066 129.988C201.095 129.929 201.124 129.861 201.173 129.802C201.232 129.705 201.31 129.617 201.407 129.529C201.466 129.471 201.524 129.422 201.592 129.373C201.719 129.266 201.875 129.178 202.061 129.09C204.509 127.94 206.879 126.701 209.161 125.375C211.443 124.048 213.579 122.663 215.568 121.239C216.3 120.722 217.49 120.488 218.601 120.664L245.256 124.799C246.504 124.985 247.841 124.692 248.514 124.048C254.102 118.665 258.354 112.949 261.27 107.049L262.47 104.416C262.616 104.074 262.753 103.723 262.889 103.382C262.977 103.157 263.065 102.933 263.143 102.709C263.328 102.241 263.504 101.763 263.66 101.295C263.777 100.953 263.884 100.602 264.001 100.251C264.108 99.9001 264.216 99.5588 264.313 99.2077C264.381 98.9638 264.459 98.7103 264.518 98.4664C264.606 98.1544 264.684 97.8422 264.762 97.5301C264.85 97.179 264.928 96.8377 265.006 96.4866C265.142 95.8819 265.259 95.287 265.366 94.6823C265.376 94.6531 265.376 94.6141 265.386 94.5848C265.396 94.5263 265.405 94.458 265.415 94.3995C265.454 94.1459 265.493 93.8923 265.532 93.6289C265.571 93.3851 265.61 93.1315 265.64 92.8877C265.688 92.5366 265.727 92.1855 265.766 91.8344C265.815 91.3566 265.864 90.8787 265.893 90.4008C265.893 90.3423 265.893 90.274 265.893 90.2154C265.922 89.9716 265.932 89.7376 265.942 89.4937V89.4646C265.942 89.406 265.942 89.3572 265.942 89.2987C265.952 89.0842 265.961 88.8696 265.961 88.655C265.971 88.3527 265.981 88.0406 265.981 87.748H266Z" fill="url(#paint3_linear_221_1174)"/>
        <path d="M138.246 157.138L138.109 204.84L130.902 189.43C130.755 189.138 130.492 188.884 130.141 188.679C129.702 188.426 129.136 188.26 128.502 188.201C122.202 187.616 115.989 186.66 109.962 185.334C108.87 185.09 107.651 185.237 106.841 185.714L87.4136 196.998L87.5501 149.297L106.978 138.013C107.787 137.535 109.006 137.389 110.089 137.633C116.116 138.959 122.339 139.915 128.639 140.5C129.273 140.559 129.839 140.724 130.277 140.978C130.629 141.183 130.892 141.436 131.028 141.729L138.246 157.138Z" fill="url(#paint4_linear_221_1174)"/>
        <path d="M87.5505 149.299L87.4139 197C86.5069 197.526 85.0928 197.653 83.9615 197.292C74.033 194.133 64.7093 190.124 56.2926 185.257C47.8661 180.401 40.9025 175.007 35.4312 169.272C35.1873 169.019 35.0703 168.746 35.0703 168.463L35.1484 139.936L35.2069 120.762C35.2069 121.045 35.3239 121.318 35.5677 121.571C36.0749 122.098 36.5917 122.624 37.1184 123.151C37.567 123.59 38.0255 124.039 38.5033 124.477C38.7374 124.702 38.9812 124.926 39.2153 125.141C39.4591 125.365 39.7029 125.58 39.9467 125.804C40.3271 126.135 40.7075 126.477 41.0878 126.808C41.1463 126.847 41.1951 126.896 41.2537 126.945C41.6145 127.257 41.9851 127.559 42.346 127.862C43.175 128.554 44.0235 129.227 44.9012 129.89C45.2816 130.193 45.6619 130.476 46.0521 130.768C46.9591 131.451 47.9051 132.124 48.8706 132.787C49.4558 133.187 50.0507 133.596 50.6554 133.987C51.2406 134.377 51.8355 134.767 52.4499 135.147C52.7133 135.313 52.9766 135.479 53.2399 135.645C53.513 135.81 53.7763 135.976 54.0494 136.142C54.7614 136.581 55.4928 137.01 56.2341 137.439C56.3023 137.478 56.3609 137.517 56.4291 137.556C64.8458 142.423 74.1696 146.431 84.0882 149.591C85.2196 149.952 86.6435 149.825 87.5505 149.299Z" fill="url(#paint5_linear_221_1174)"/>
        <path d="M250.912 53.8769C250.912 53.8769 250.932 53.8279 250.932 53.8083V53.6514C250.932 53.72 250.922 53.7984 250.912 53.8769Z" fill="#FFCB4C"/>
        <path d="M265.96 85.7866C265.96 85.338 265.629 84.9283 265.112 84.6357C264.751 84.4212 264.302 84.2749 263.785 84.1871L250.853 82.1878L250.005 82.0512L237.15 80.0617C236.653 79.9837 236.204 79.8276 235.853 79.6227C235.414 79.3692 235.122 79.0474 235.014 78.6767C234.098 75.3803 232.644 72.1131 230.645 68.9434C230.45 68.6118 230.236 68.2802 230.011 67.9486C229.884 67.7535 229.806 67.5389 229.806 67.3244C229.806 67.2659 229.806 67.2172 229.826 67.1587C229.845 67.0514 229.884 66.944 229.933 66.8367C229.962 66.7685 230.011 66.71 230.06 66.6515C230.099 66.593 230.148 66.5344 230.196 66.4857C230.323 66.3589 230.479 66.2418 230.655 66.1346L250.083 54.8504C250.365 54.6944 250.57 54.4994 250.717 54.2946C250.756 54.236 250.795 54.1678 250.824 54.0996H250.834C250.873 54.0118 250.892 53.9434 250.912 53.8751C250.921 53.7971 250.931 53.7191 250.931 53.6508V53.8069C250.98 53.4851 250.873 53.1437 250.58 52.8414C245.089 47.1067 238.135 41.7134 229.709 36.8564C221.292 31.9897 211.968 27.9814 202.05 24.8214C200.909 24.4606 199.504 24.5873 198.587 25.1237L179.169 36.4078C178.35 36.876 177.121 37.0223 176.039 36.7785C170.012 35.4521 163.799 34.4962 157.489 33.9208C156.855 33.8623 156.289 33.6867 155.85 33.4332C155.499 33.2284 155.236 32.9748 155.099 32.6822L147.882 17.2727C147.746 16.9801 147.473 16.7168 147.112 16.512C146.595 16.2096 145.893 16.0243 145.122 16.0146C134.326 15.8878 123.51 16.59 112.967 18.1017L108.422 18.8039C98.2597 20.5106 88.3995 22.9878 79.1245 26.2453C78.2273 26.5671 77.7104 27.1426 77.7494 27.7375V27.7668C77.7494 27.8253 77.7591 27.8838 77.7786 27.9325C77.7884 28.0008 77.8176 28.0692 77.8469 28.1374L85.0641 43.5664C85.1323 43.7127 85.1616 43.8589 85.1616 44.0052C85.1616 44.1515 85.1226 44.2979 85.0641 44.4442C84.8983 44.7855 84.5666 45.0977 84.0692 45.322C81.9139 46.346 79.817 47.4383 77.7884 48.5892C77.7494 48.5892 77.7201 48.6183 77.6909 48.6379C77.4471 48.7744 77.2033 48.911 76.9692 49.0475C74.687 50.3739 72.5511 51.749 70.5615 53.173C69.8301 53.6996 68.65 53.9239 67.5187 53.7581L40.8738 49.6229C39.6254 49.4278 38.2893 49.7302 37.6261 50.3739C32.0084 55.7672 27.7464 61.5019 24.8401 67.4219L23.7087 69.9089C21.2998 75.5656 20.1099 81.3685 20.1392 87.1617C20.1392 87.6591 20.1489 88.1468 20.1684 88.6441C20.1879 89.083 20.5098 89.4927 21.0267 89.7853C21.3875 89.9998 21.8362 90.1461 22.3531 90.2241L48.9784 94.3593C49.4758 94.4373 49.9245 94.5837 50.2756 94.7885C50.7145 95.0421 51.007 95.3736 51.1143 95.7345C52.1384 99.3821 53.8061 102.981 56.1175 106.472C56.2541 106.677 56.3223 106.892 56.3223 107.106C56.3223 107.545 56.0395 107.965 55.4836 108.286L48.9297 112.09L36.0559 119.571C35.5 119.892 35.2074 120.322 35.2074 120.76C35.2074 121.043 35.3244 121.316 35.5682 121.57C36.0754 122.097 36.5923 122.623 37.1189 123.15C37.5675 123.589 38.026 124.037 38.5039 124.476C38.7379 124.701 38.9817 124.925 39.2158 125.139C39.4596 125.364 39.7035 125.578 39.9473 125.803C40.3276 126.134 40.708 126.476 41.0883 126.807C41.1469 126.846 41.1957 126.895 41.2542 126.944C41.615 127.256 41.9856 127.558 42.3465 127.861C43.1755 128.553 44.024 129.226 44.9017 129.889C45.2821 130.191 45.6625 130.474 46.0526 130.767C46.9596 131.45 47.9056 132.122 48.8712 132.786C49.4563 133.186 50.0512 133.595 50.6559 133.985C51.2411 134.375 51.836 134.766 52.4505 135.146C52.7138 135.312 52.9771 135.477 53.2404 135.643C53.5135 135.809 53.7769 135.975 54.0499 136.141C54.7619 136.58 55.4934 137.009 56.2346 137.438C56.3028 137.477 56.3614 137.516 56.4296 137.555C64.8464 142.422 74.1701 146.43 84.0888 149.59C85.2201 149.951 86.644 149.824 87.551 149.297L106.979 138.013C107.788 137.535 109.007 137.389 110.09 137.633C116.117 138.959 122.34 139.915 128.64 140.5C129.274 140.559 129.839 140.725 130.278 140.978C130.629 141.183 130.893 141.436 131.029 141.729L138.246 157.139C138.383 157.431 138.646 157.694 139.007 157.909C139.524 158.202 140.236 158.387 140.997 158.397C151.842 158.523 162.726 157.821 173.318 156.29L177.609 155.627C178.653 155.451 179.696 155.266 180.73 155.081C181.344 154.964 181.949 154.847 182.563 154.73C183.178 154.613 183.792 154.486 184.407 154.359C184.885 154.271 185.353 154.174 185.821 154.066C185.831 154.066 185.84 154.066 185.85 154.057C185.948 154.037 186.036 154.018 186.133 153.998C186.718 153.881 187.303 153.754 187.879 153.608C188.006 153.579 188.132 153.55 188.259 153.52C188.464 153.481 188.669 153.432 188.874 153.384C188.903 153.384 188.932 153.384 188.961 153.374C190.2 153.091 191.429 152.789 192.648 152.477C193.526 152.252 194.394 152.028 195.271 151.784C196.032 151.579 196.793 151.365 197.554 151.15H197.563C197.914 151.053 198.256 150.946 198.607 150.848C199.377 150.624 200.148 150.39 200.909 150.156C201.133 150.087 201.367 150.019 201.591 149.951C202.02 149.824 202.45 149.687 202.879 149.551C202.947 149.531 203.015 149.512 203.074 149.483C203.376 149.395 203.678 149.297 203.971 149.19C204.995 148.858 206 148.517 207.004 148.166C207.082 148.137 207.17 148.107 207.238 148.068C207.316 148.039 207.394 148 207.453 147.961C207.589 147.893 207.716 147.815 207.823 147.727C207.901 147.669 207.97 147.61 208.028 147.542C208.136 147.425 208.233 147.288 208.292 147.152C208.35 147.015 208.389 146.879 208.389 146.732C208.389 146.576 208.35 146.43 208.282 146.274L201.065 130.855C200.996 130.708 200.967 130.562 200.967 130.426C200.967 130.338 200.977 130.26 200.996 130.182C200.996 130.172 201.006 130.152 201.006 130.143C201.006 130.133 201.016 130.123 201.016 130.113C201.026 130.074 201.045 130.026 201.065 129.987C201.094 129.928 201.123 129.86 201.172 129.801C201.23 129.704 201.308 129.616 201.406 129.528C201.465 129.47 201.523 129.421 201.591 129.372C201.718 129.265 201.874 129.177 202.059 129.089C204.507 127.939 206.877 126.7 209.16 125.373C211.442 124.047 213.578 122.662 215.567 121.238C216.299 120.721 217.488 120.487 218.6 120.663L245.255 124.798C246.503 124.983 247.839 124.691 248.512 124.047C254.101 118.664 258.353 112.948 261.269 107.048L262.469 104.415C262.615 104.073 262.752 103.722 262.888 103.381C262.976 103.156 263.064 102.932 263.142 102.708C263.327 102.24 263.503 101.762 263.659 101.294C263.776 100.952 263.883 100.601 264 100.25C264.107 99.899 264.214 99.5577 264.312 99.2066C264.38 98.9628 264.458 98.7092 264.517 98.4654C264.605 98.1533 264.683 97.8411 264.761 97.529C264.848 97.1779 264.926 96.8366 265.004 96.4855C265.141 95.8808 265.258 95.2859 265.365 94.6812C265.375 94.652 265.375 94.613 265.385 94.5837C265.395 94.5252 265.404 94.4569 265.414 94.3984C265.453 94.1448 265.492 93.8912 265.531 93.6279C265.57 93.384 265.609 93.1304 265.638 92.8866C265.687 92.5355 265.726 92.1845 265.765 91.8334C265.814 91.3555 265.863 90.8776 265.892 90.3997C265.892 90.3412 265.892 90.2729 265.892 90.2143C265.921 89.9705 265.931 89.7365 265.941 89.4926V89.4635C265.941 89.405 265.941 89.3562 265.941 89.2976C265.95 89.0831 265.96 88.8685 265.96 88.6539C265.97 88.3516 265.98 88.0396 265.98 87.747V87.6786C265.98 87.0447 265.97 86.4206 265.941 85.7866H265.96ZM178.282 92.3698C178.136 92.7112 177.97 93.0524 177.785 93.3938C176.127 96.5732 173.132 99.5576 168.812 102.074C164.306 104.697 158.903 106.482 153.168 107.418C152.583 107.526 151.988 107.614 151.384 107.682C145.844 108.423 140.041 108.404 134.472 107.614L132.853 107.36C127.235 106.404 121.93 104.629 117.492 102.074C113.055 99.5089 109.983 96.4465 108.276 93.111L107.847 92.204C107.135 90.5362 106.774 88.8295 106.774 87.1228C106.774 86.918 106.784 86.7131 106.793 86.5083C106.803 86.2645 106.823 86.0109 106.852 85.7671C107.115 83.3776 108.091 81.0174 109.768 78.784C109.992 78.4719 110.236 78.1696 110.5 77.8673C110.89 77.4089 111.309 76.9505 111.767 76.5116C111.914 76.3556 112.07 76.2092 112.226 76.0629C112.382 75.9166 112.548 75.7704 112.713 75.6241C112.967 75.3998 113.24 75.1755 113.513 74.961C114.644 74.0442 115.912 73.1664 117.327 72.3471C126.572 66.9733 139.612 65.1203 151.501 66.7783L153.276 67.0513C158.893 68.0168 164.199 69.7821 168.636 72.3471C173.084 74.9121 176.146 77.9745 177.824 81.2222L178.311 82.2561C179.013 83.9141 179.365 85.6208 179.355 87.3178C179.345 89.0148 178.994 90.7118 178.282 92.3698Z" fill="url(#paint6_linear_221_1174)"/>
        <path d="M179.355 87.317C179.346 89.014 178.994 90.711 178.282 92.369C178.136 92.7104 177.97 93.0517 177.785 93.393C176.127 96.5724 173.133 99.5568 168.812 102.073C164.307 104.697 158.904 106.481 153.169 107.418C152.584 107.525 151.989 107.613 151.384 107.681C145.844 108.422 140.041 108.403 134.473 107.613L132.854 107.359C127.236 106.403 121.93 104.628 117.493 102.073C113.055 99.5081 109.983 96.4457 108.276 93.1103L107.847 92.2032C107.135 90.5354 106.774 88.8287 106.774 87.122C106.774 86.9172 106.784 86.7124 106.794 86.5075C106.804 86.2637 106.823 86.0101 106.852 85.7663C107.116 83.3769 108.091 81.0166 109.769 78.7832C109.993 78.4711 110.237 78.1689 110.5 77.8665C110.89 77.4081 111.309 76.9497 111.768 76.5109C111.914 76.3548 112.07 76.2084 112.226 76.0621C112.382 75.9158 112.548 75.7696 112.714 75.6233C112.967 75.399 113.241 75.1747 113.514 74.9602C114.645 74.0434 115.913 73.1656 117.327 72.3464C126.573 66.9725 139.612 65.1195 151.501 66.7775L153.276 67.0505C158.894 68.016 164.199 69.7814 168.637 72.3464C173.084 74.9114 176.147 77.9737 177.824 81.2214L178.312 82.2553C179.014 83.9133 179.365 85.62 179.355 87.317Z" fill="url(#paint7_linear_221_1174)"/>
        <path d="M208.389 146.732L208.311 173.475L208.252 194.434C208.252 195.009 207.745 195.555 206.877 195.867C197.573 199.135 187.683 201.622 177.472 203.328L173.181 203.991C162.589 205.523 151.705 206.225 140.86 206.098C140.099 206.088 139.397 205.903 138.87 205.61C138.519 205.396 138.246 205.133 138.109 204.84L138.246 157.139C138.382 157.431 138.646 157.695 139.007 157.909C139.524 158.202 140.235 158.387 140.996 158.397C151.841 158.524 162.726 157.821 173.317 156.29L177.608 155.627C178.652 155.451 179.696 155.266 180.729 155.081C181.344 154.964 181.948 154.847 182.563 154.73C183.177 154.613 183.792 154.486 184.406 154.359C184.884 154.271 185.352 154.174 185.82 154.067C185.83 154.067 185.84 154.067 185.85 154.057C185.947 154.037 186.035 154.018 186.132 153.998C186.718 153.881 187.303 153.754 187.878 153.608C188.005 153.579 188.132 153.55 188.259 153.52C188.463 153.481 188.668 153.433 188.873 153.384C188.902 153.384 188.932 153.384 188.961 153.374C190.199 153.091 191.428 152.789 192.647 152.477C193.525 152.253 194.393 152.028 195.271 151.784C196.041 151.589 196.802 151.375 197.553 151.151H197.563C197.914 151.053 198.255 150.946 198.606 150.848C199.377 150.634 200.147 150.409 200.908 150.156C201.132 150.087 201.366 150.019 201.591 149.951C202.02 149.824 202.449 149.688 202.878 149.551C202.946 149.532 203.015 149.512 203.073 149.483C203.376 149.395 203.678 149.297 203.97 149.19C204.995 148.859 205.999 148.517 207.004 148.166C207.082 148.137 207.169 148.108 207.238 148.069C207.316 148.039 207.394 148 207.452 147.961C207.589 147.893 207.716 147.815 207.823 147.727C207.901 147.669 207.969 147.61 208.028 147.542C208.135 147.425 208.232 147.288 208.291 147.152C208.359 147.015 208.389 146.879 208.389 146.732Z" fill="url(#paint8_linear_221_1174)"/>
    </g>
    <defs>
        <filter id="filter0_d_221_1174" x="0" y="0" width="286" height="230.112" filterUnits="userSpaceOnUse" color-interpolation-filters="sRGB">
            <feFlood flood-opacity="0" result="BackgroundImageFix"/>
            <feColorMatrix in="SourceAlpha" type="matrix" values="0 0 0 0 0 0 0 0 0 0 0 0 0 0 0 0 0 0 127 0" result="hardAlpha"/>
            <feOffset dy="4"/>
            <feGaussianBlur stdDeviation="10"/>
            <feComposite in2="hardAlpha" operator="out"/>
            <feColorMatrix type="matrix" values="0 0 0 0 0.751406 0 0 0 0 0.844566 0 0 0 0 0.954167 0 0 0 1 0"/>
            <feBlend mode="normal" in2="BackgroundImageFix" result="effect1_dropShadow_221_1174"/>
            <feBlend mode="normal" in="SourceGraphic" in2="effect1_dropShadow_221_1174" result="shape"/>
        </filter>
        <linearGradient id="paint0_linear_221_1174" x1="81.4259" y1="28.1387" x2="81.4259" y2="48.5904" gradientUnits="userSpaceOnUse">
            <stop stop-color="#ABDEFF"/>
            <stop offset="1" stop-color="#F2F2F2"/>
        </linearGradient>
        <linearGradient id="paint1_linear_221_1174" x1="240.788" y1="53.8066" x2="240.788" y2="82.1875" gradientUnits="userSpaceOnUse">
            <stop stop-color="#ABDEFF"/>
            <stop offset="1" stop-color="#F2F2F2"/>
        </linearGradient>
        <linearGradient id="paint2_linear_221_1174" x1="38.1611" y1="87.1621" x2="38.1611" y2="139.935" gradientUnits="userSpaceOnUse">
            <stop stop-color="#ABDEFF"/>
            <stop offset="1" stop-color="#F2F2F2"/>
        </linearGradient>
        <linearGradient id="paint3_linear_221_1174" x1="233.484" y1="87.748" x2="233.484" y2="173.476" gradientUnits="userSpaceOnUse">
            <stop stop-color="#ABDEFF"/>
            <stop offset="1" stop-color="#F2F2F2"/>
        </linearGradient>
        <linearGradient id="paint4_linear_221_1174" x1="112.83" y1="137.517" x2="112.83" y2="204.84" gradientUnits="userSpaceOnUse">
            <stop stop-color="#ABDEFF"/>
            <stop offset="1" stop-color="#F2F2F2"/>
        </linearGradient>
        <linearGradient id="paint5_linear_221_1174" x1="61.3104" y1="120.762" x2="61.3104" y2="197.497" gradientUnits="userSpaceOnUse">
            <stop stop-color="#ABDEFF"/>
            <stop offset="1" stop-color="#F2F2F2"/>
        </linearGradient>
        <linearGradient id="paint6_linear_221_1174" x1="143.059" y1="16" x2="143.059" y2="158.411" gradientUnits="userSpaceOnUse">
            <stop offset="0.458333" stop-color="#5FB0DD"/>
            <stop offset="1" stop-color="#7DD1FF"/>
        </linearGradient>
        <linearGradient id="paint7_linear_221_1174" x1="143.065" y1="66.1904" x2="143.065" y2="108.222" gradientUnits="userSpaceOnUse">
            <stop stop-color="#ABDEFF"/>
            <stop offset="1" stop-color="#F2F2F2"/>
        </linearGradient>
        <linearGradient id="paint8_linear_221_1174" x1="173.249" y1="146.732" x2="173.249" y2="206.113" gradientUnits="userSpaceOnUse">
            <stop stop-color="#ABDEFF"/>
            <stop offset="1" stop-color="#F2F2F2"/>
        </linearGradient>
    </defs>
</svg>
