<svg width="270" height="206" viewBox="0 0 270 206" fill="none" xmlns="http://www.w3.org/2000/svg">
    <g opacity="0.6" filter="url(#filter0_d_221_1135)">
        <path d="M54.4582 88.2733C54.5861 88.8174 54.6022 89.3575 54.5206 89.9105L46.2437 54.2165L54.4582 88.2733Z" fill="#FFCB4C"/>
        <path d="M30.5876 93.8823L41.4338 140.596L31.5572 99.6372L20.7205 52.9217L30.5876 93.8823Z" fill="#C6972C"/>
        <path d="M115.392 30.694L125.261 73.2458L113.779 77.7064L70.0735 94.6645C67.0269 95.8437 64.7453 97.5785 63.5063 99.4207L57.3785 100.861L65.2949 134.977C66.2111 138.791 61.6118 143.135 55.0281 144.692C51.7351 145.466 48.5636 145.385 46.1053 144.654C43.6448 143.913 41.893 142.501 41.4349 140.594L30.5886 93.8812C31.0563 95.7857 32.8081 97.197 35.2686 97.9383C37.7269 98.6699 40.8888 98.7528 44.1818 97.979C49.8397 96.6394 54.021 93.2597 54.525 89.9182C54.6044 89.3557 54.5882 88.8156 54.4626 88.2811L46.2459 54.2147L105.119 40.3802C108.689 39.5413 111.683 37.8809 113.518 35.9187C113.689 35.7475 113.846 35.5594 114.004 35.3714C114.098 35.2586 114.181 35.1385 114.265 35.028C114.358 34.9056 114.431 34.7877 114.513 34.6676C114.744 34.3212 114.942 33.9625 115.087 33.5959C115.193 33.3596 115.275 33.1087 115.34 32.8718C115.531 32.142 115.561 31.4099 115.392 30.694Z" fill="url(#paint0_linear_221_1135)"/>
        <path d="M115.387 30.6765L115.391 30.6956C115.56 31.4115 115.53 32.1436 115.339 32.8734C115.274 33.1103 115.192 33.3612 115.086 33.5975C114.941 33.9641 114.743 34.3228 114.512 34.6692C114.43 34.7893 114.357 34.9072 114.264 35.0296C114.18 35.1401 114.097 35.2602 114.003 35.373C113.845 35.561 113.688 35.7491 113.517 35.9203C111.682 37.8825 108.688 39.5429 105.118 40.3818L46.2449 54.2163L54.4594 88.2731C54.5873 88.8172 54.6034 89.3573 54.5218 89.9103C54.0201 93.2613 49.8388 96.641 44.1809 97.9806C40.8879 98.7544 37.7259 98.6715 35.2677 97.9399C32.8071 97.1986 31.0553 95.7873 30.5876 93.8828L20.7206 52.9222C20.2899 51.0896 21.1181 49.0418 23.037 47.221C24.9655 45.3981 27.8303 43.9594 30.9896 43.217L101.794 26.5787C105.087 25.8049 108.256 25.876 110.716 26.6172C113.177 27.3584 114.929 28.7698 115.387 30.6765Z" fill="url(#paint1_linear_221_1135)"/>
        <path d="M196.619 55.1973L207.455 101.913C207.751 103.213 207.41 104.633 206.497 105.976L154.057 118.298C147.459 119.839 142.86 124.183 143.788 128.004L144.759 132.137L89.754 153.472C85.7029 155.049 81.3023 155.267 78.0603 154.286C76.3481 153.772 74.9711 152.927 74.1265 151.776C73.7651 151.267 73.5205 150.74 73.3904 150.187L62.5582 103.49C62.686 104.034 62.9306 104.561 63.2898 105.061C64.1344 106.212 65.5114 107.057 67.2236 107.571C70.4561 108.554 74.8661 108.333 78.9172 106.757L189.093 64.0163C189.913 63.6926 190.686 63.3397 191.389 62.9429C191.808 62.7134 192.213 62.467 192.588 62.2179L192.598 62.2156C192.847 62.036 193.09 61.8682 193.311 61.6954L193.321 61.6931C193.549 61.5085 193.768 61.3261 193.978 61.1459C194.195 60.954 194.392 60.7666 194.581 60.5814C194.766 60.3866 194.933 60.1963 195.1 60.006C195.344 59.7169 195.567 59.4228 195.757 59.1164C195.891 58.9137 196.005 58.7155 196.108 58.5101C196.267 58.2008 196.397 57.8983 196.487 57.5951C196.654 57.0624 196.743 56.538 196.724 56.0288C196.724 55.8576 196.705 55.6908 196.683 55.5145C196.668 55.4073 196.644 55.3023 196.619 55.1973Z" fill="url(#paint2_linear_221_1135)"/>
        <path d="M196.488 57.5941C196.398 57.8975 196.268 58.2003 196.109 58.5099C196.258 58.2026 196.389 57.8998 196.488 57.5941Z" fill="#FFCB4C"/>
        <path d="M146.746 131.37L144.751 132.141L143.78 128.008C144.134 129.426 145.199 130.575 146.746 131.37Z" fill="#FFCB4C"/>
        <path d="M196.618 55.1987C196.643 55.3037 196.668 55.4087 196.683 55.5159C196.704 55.6922 196.714 55.8612 196.723 56.0302C196.742 56.5394 196.654 57.0638 196.487 57.5965C196.388 57.9019 196.257 58.2044 196.108 58.5115C196.005 58.7169 195.89 58.9151 195.757 59.1178C195.567 59.4242 195.344 59.7183 195.1 60.0074C194.933 60.1977 194.766 60.388 194.58 60.5828C194.392 60.768 194.194 60.9554 193.977 61.1473C193.768 61.3275 193.549 61.5099 193.321 61.6945L193.311 61.6968C193.09 61.8696 192.847 62.0374 192.597 62.217L192.588 62.2193C192.213 62.4684 191.808 62.7148 191.388 62.9443C190.686 63.3411 189.913 63.694 189.092 64.0177L78.9169 106.758C74.8657 108.335 70.4557 108.555 67.2233 107.572C65.5111 107.058 64.1341 106.213 63.2895 105.062C62.9303 104.562 62.6857 104.036 62.5578 103.492C62.2505 102.184 62.594 100.774 63.505 99.4216C64.7441 97.5793 67.0256 95.8446 70.0723 94.6653L113.778 77.7072L125.259 73.2466L180.255 51.913C184.308 50.3461 188.709 50.1279 191.951 51.1085C193.651 51.6154 195.04 52.4675 195.885 53.6187C196.253 54.1162 196.491 54.6547 196.618 55.1987Z" fill="url(#paint3_linear_221_1135)"/>
        <path d="M196.486 57.598C196.396 57.9014 196.266 58.2042 196.107 58.5138C196.256 58.2065 196.387 57.9037 196.486 57.598Z" fill="#FFCB4C"/>
        <path d="M212.921 104.466L212.634 104.534L204.716 70.4073L212.921 104.466Z" fill="#FFCB4C"/>
        <path d="M238.448 105.781L249.281 152.477C249.719 154.298 248.893 156.355 246.964 158.178C245.043 159.99 242.178 161.428 239.012 162.182L168.217 178.818C164.924 179.592 161.753 179.512 159.292 178.77C156.832 178.029 155.08 176.618 154.624 174.721L144.749 132.14L146.743 131.37C147.27 131.639 147.837 131.868 148.456 132.055C150.916 132.796 154.088 132.877 157.371 132.105L228.175 115.467C231.342 114.713 234.206 113.274 236.128 111.463C238.049 109.652 238.875 107.594 238.448 105.781Z" fill="url(#paint4_linear_221_1135)"/>
        <path d="M146.743 131.369L144.749 132.14L143.777 128.007C144.131 129.425 145.196 130.574 146.743 131.369Z" fill="#FFCB4C"/>
        <path d="M238.444 105.763L238.449 105.782C238.875 107.595 238.049 109.653 236.128 111.464C234.206 113.275 231.342 114.714 228.175 115.468L157.371 132.106C154.088 132.878 150.916 132.797 148.456 132.056C147.837 131.869 147.27 131.639 146.743 131.37C145.197 130.575 144.131 129.426 143.787 128.006C142.859 124.185 147.459 119.841 154.054 118.291L199.221 107.677L212.92 104.468L204.715 70.4093C203.798 66.5959 208.388 62.254 214.984 60.7041C218.277 59.9303 221.446 60.0014 223.907 60.7426C226.367 61.4838 228.119 62.8952 228.577 64.8019L238.444 105.763Z" fill="url(#paint5_linear_221_1135)"/>
    </g>
    <defs>
        <filter id="filter0_d_221_1135" x="0.609375" y="10.0293" width="268.786" height="193.334" filterUnits="userSpaceOnUse" color-interpolation-filters="sRGB">
            <feFlood flood-opacity="0" result="BackgroundImageFix"/>
            <feColorMatrix in="SourceAlpha" type="matrix" values="0 0 0 0 0 0 0 0 0 0 0 0 0 0 0 0 0 0 127 0" result="hardAlpha"/>
            <feOffset dy="4"/>
            <feGaussianBlur stdDeviation="10"/>
            <feComposite in2="hardAlpha" operator="out"/>
            <feColorMatrix type="matrix" values="0 0 0 0 0.751406 0 0 0 0 0.844566 0 0 0 0 0.954167 0 0 0 1 0"/>
            <feBlend mode="normal" in2="BackgroundImageFix" result="effect1_dropShadow_221_1135"/>
            <feBlend mode="normal" in="SourceGraphic" in2="effect1_dropShadow_221_1135" result="shape"/>
        </filter>
        <linearGradient id="paint0_linear_221_1135" x1="68.1117" y1="41.8045" x2="90.3394" y2="136.394" gradientUnits="userSpaceOnUse">
            <stop stop-color="#ABDEFF"/>
            <stop offset="1" stop-color="#F2F2F2"/>
        </linearGradient>
        <linearGradient id="paint1_linear_221_1135" x1="66.4298" y1="34.8889" x2="79.3156" y2="89.7243" gradientUnits="userSpaceOnUse">
            <stop offset="0.458333" stop-color="#5FB0DD"/>
            <stop offset="1" stop-color="#7DD1FF"/>
        </linearGradient>
        <linearGradient id="paint2_linear_221_1135" x1="127.652" y1="71.4038" x2="143.992" y2="140.936" gradientUnits="userSpaceOnUse">
            <stop stop-color="#ABDEFF"/>
            <stop offset="1" stop-color="#F2F2F2"/>
        </linearGradient>
        <linearGradient id="paint3_linear_221_1135" x1="126.085" y1="64.4391" x2="133.088" y2="94.2373" gradientUnits="userSpaceOnUse">
            <stop offset="0.458333" stop-color="#5FB0DD"/>
            <stop offset="1" stop-color="#7DD1FF"/>
        </linearGradient>
        <linearGradient id="paint4_linear_221_1135" x1="191.053" y1="116.918" x2="203.643" y2="170.494" gradientUnits="userSpaceOnUse">
            <stop stop-color="#ABDEFF"/>
            <stop offset="1" stop-color="#F2F2F2"/>
        </linearGradient>
        <linearGradient id="paint5_linear_221_1135" x1="179.854" y1="68.9593" x2="192.74" y2="123.795" gradientUnits="userSpaceOnUse">
            <stop offset="0.458333" stop-color="#5FB0DD"/>
            <stop offset="1" stop-color="#7DD1FF"/>
        </linearGradient>
    </defs>
</svg>
