<svg width="232" height="187" viewBox="0 0 232 187" fill="none" xmlns="http://www.w3.org/2000/svg">
    <g opacity="0.6" filter="url(#filter0_d_221_1233)">
        <path d="M81.0954 73.793V74.5604C81.0589 74.5823 81.0151 74.5969 80.9785 74.6043C81.0589 74.3338 81.0954 74.0634 81.0954 73.793Z" fill="#FFCB4C"/>
        <path d="M60.4258 50.4033C60.5866 50.1694 60.7254 49.9282 60.8278 49.6797C60.7254 49.9282 60.5939 50.1694 60.4258 50.4033Z" fill="#FFCB4C"/>
        <path d="M39.7214 63.0195V63.7139L39.1221 63.3703L39.7214 63.0195Z" fill="#FFCB4C"/>
        <path d="M39.7646 47.9788L36.4756 49.8938L36.4975 40.6406C36.4975 43.1695 37.5866 45.7057 39.7646 47.9788Z" fill="url(#paint0_linear_221_1233)"/>
        <path d="M60.8278 49.6797C60.7254 49.9282 60.5939 50.1694 60.4258 50.4033C60.5866 50.1694 60.7254 49.9282 60.8278 49.6797Z" fill="#FFCB4C"/>
        <path d="M39.7204 63.0205V63.7148L39.1211 63.3713L39.7204 63.0205Z" fill="#FFCB4C"/>
        <path d="M129.416 30.3329C129.416 30.4864 129.401 30.6472 129.379 30.8007C129.35 30.9761 129.306 31.1515 129.248 31.3269C129.189 31.4951 129.124 31.6558 129.043 31.8166C129.043 31.8166 129.041 31.8191 129.036 31.824C128.955 31.9848 128.86 32.1456 128.751 32.3064C128.59 32.5403 128.393 32.7741 128.159 32.9934C128.122 33.0373 128.078 33.0738 128.035 33.1103C127.961 33.1834 127.888 33.2565 127.801 33.315C127.669 33.432 127.53 33.5416 127.384 33.6439C127.194 33.7828 126.982 33.9144 126.763 34.0459C123.203 36.1071 117.422 36.1071 113.84 34.0459L101.671 27.0219L82.3606 38.2413C78.8084 40.3097 73.0197 40.3097 69.4456 38.2413L68.1227 37.4811C65.0529 35.705 60.0828 35.7123 57.0349 37.4811C55.902 38.1389 55.1931 38.9503 54.908 39.8054C54.8642 39.9297 54.8276 40.0612 54.8057 40.1928C54.8057 40.2147 54.7984 40.2366 54.7984 40.2659C54.7764 40.3974 54.7618 40.5289 54.7618 40.6605V40.6751C54.7618 41.8446 55.5366 43.0067 57.0715 43.8984L58.3944 44.6586C60.1997 45.7038 61.0987 47.0705 61.0914 48.4373C61.0914 48.5908 61.0768 48.7516 61.0549 48.9051C61.011 49.1682 60.9379 49.4241 60.8283 49.6799C60.726 49.9284 60.5871 50.1696 60.4263 50.4035C60.1486 50.7981 59.7904 51.1782 59.3373 51.5363C59.1619 51.6752 58.9645 51.8141 58.7598 51.9456C58.6575 52.0114 58.5479 52.0772 58.4382 52.143L54.7253 54.2991L39.7199 63.0188L39.1206 63.3696L39.7199 63.7131L51.2901 70.3935C53.0954 71.4387 53.9944 72.8129 53.9871 74.1796C53.9871 74.3185 53.9725 74.4647 53.9505 74.6035C53.8117 75.5464 53.2342 76.4747 52.2256 77.2713C52.0429 77.4102 51.8528 77.549 51.6482 77.6806C51.5459 77.7464 51.4362 77.8122 51.3266 77.8779C48.1691 79.7198 43.2428 79.9171 39.6761 78.4846C39.4714 78.4042 39.2741 78.3165 39.0767 78.2288C38.8501 78.1191 38.6236 78.0022 38.4116 77.8779L36.409 76.7232L24.9484 70.1012C21.7178 68.2374 20.1025 65.7815 20.1025 63.333C20.1025 60.8845 21.6886 58.4799 24.8753 56.6307L36.4747 49.8918L39.7638 47.9768C37.5857 45.7037 36.4967 43.1676 36.4967 40.6386C36.4967 36.7868 39.0256 32.9276 44.0761 29.9967C52.4449 25.1362 65.1771 24.2811 75.1101 27.4386L89.9985 18.7847C96.3939 15.0718 106.824 15.0718 113.256 18.7847L126.719 26.5615C128.524 27.5993 129.423 28.9662 129.416 30.3329Z" fill="url(#paint1_linear_221_1233)"/>
        <path d="M60.8278 49.6797C60.7254 49.9282 60.5939 50.1694 60.4258 50.4033C60.5866 50.1694 60.7254 49.9282 60.8278 49.6797Z" fill="#FFCB4C"/>
        <path d="M81.0956 73.7939V74.5613L81.0006 109.542C80.9933 110.836 80.1454 112.122 78.4497 113.109C75.0291 115.097 69.467 115.097 66.0318 113.109C64.2995 112.108 63.4371 110.799 63.4444 109.491L63.5394 73.75C63.5394 74.6417 63.9487 75.5407 64.7673 76.3374C64.8404 76.4105 64.9135 76.4836 65.0012 76.5567C65.3228 76.8418 65.7029 77.1122 66.1341 77.3607C69.5693 79.3487 75.1315 79.3487 78.5521 77.3607C78.976 77.1122 79.3488 76.849 79.663 76.5713C79.7434 76.4982 79.8239 76.4251 79.8969 76.352C80.4451 75.8112 80.8106 75.2191 80.9787 74.6125C81.0591 74.3348 81.0956 74.0643 81.0956 73.7939Z" fill="url(#paint2_linear_221_1233)"/>
        <path d="M129.416 30.3354L129.313 66.0764C129.313 67.4212 128.429 68.7662 126.66 69.7967C123.101 71.8579 117.319 71.8579 113.738 69.7967L101.568 62.7727L82.2654 73.9921C81.8999 74.204 81.5052 74.394 81.0959 74.5621V73.7947C81.0959 72.4791 80.2408 71.1707 78.5085 70.1694C76.0235 68.7368 72.4421 68.3348 69.3577 68.978C68.9045 69.0657 68.4586 69.1828 68.0347 69.3289C67.3404 69.5409 66.6899 69.8259 66.0979 70.1694C65.1769 70.703 64.5045 71.3315 64.0806 71.9967C63.0719 71.8797 62.0341 71.8725 61.0254 71.9748L60.9888 84.1808C60.9888 85.5256 60.1045 86.8705 58.3357 87.8937L53.943 90.4446L53.8845 109.916C53.8772 111.261 52.9928 112.605 51.2314 113.629C47.6719 115.697 41.8905 115.69 38.3091 113.629L24.8459 105.852C21.608 103.988 19.9927 101.525 20 99.0692L20.1023 63.3355C20.1023 65.784 21.7176 68.2398 24.9482 70.1036L36.4087 76.7256L38.4114 77.8804C38.6234 78.0047 38.8499 78.1216 39.0765 78.2312C39.2738 78.319 39.4712 78.4066 39.6758 78.487C43.2426 79.9196 48.1689 79.7223 51.3264 77.8804C51.436 77.8146 51.5456 77.7489 51.648 77.6831C51.8526 77.5515 52.0426 77.4127 52.2254 77.2738C53.234 76.4771 53.8115 75.5489 53.9503 74.606C53.9723 74.4671 53.9869 74.321 53.9869 74.1821C53.9942 72.8153 53.0952 71.4412 51.2898 70.396L39.7197 63.7156V63.0213L54.7251 54.3016L58.438 52.1455C58.5476 52.0797 58.6573 52.0139 58.7596 51.9481C58.9643 51.8166 59.1616 51.6776 59.3371 51.5388C59.7902 51.1806 60.1483 50.8006 60.4261 50.4059C60.5942 50.172 60.7257 49.9309 60.8281 49.6823C60.9377 49.4265 61.0108 49.1707 61.0546 48.9076C61.0766 48.7541 61.0912 48.5933 61.0912 48.4398C61.0912 47.073 60.1995 45.7063 58.3942 44.6611L57.0712 43.9009C55.5363 43.0092 54.7616 41.8471 54.7616 40.6776V40.663C54.7616 40.5314 54.7762 40.3999 54.7981 40.2684C54.7981 40.2391 54.8055 40.2172 54.8055 40.1953C54.8274 40.0637 54.8639 39.9321 54.9078 39.8079C55.1929 38.9527 55.9018 38.1414 57.0347 37.4836C60.0826 35.7148 65.0527 35.7075 68.1224 37.4836L69.4454 38.2438C73.0195 40.3122 78.8082 40.3122 82.3604 38.2438L101.671 27.0244L113.84 34.0484C117.422 36.1095 123.203 36.1095 126.763 34.0484C126.982 33.9168 127.194 33.7852 127.384 33.6464C127.53 33.544 127.669 33.4344 127.8 33.3175C127.888 33.259 127.961 33.1859 128.034 33.1128C128.078 33.0763 128.122 33.0398 128.159 32.9959C128.392 32.7766 128.59 32.5427 128.751 32.3088C128.86 32.1481 128.955 31.9872 129.036 31.8264C129.036 31.8264 129.038 31.824 129.043 31.8191C129.123 31.6583 129.196 31.4975 129.248 31.3294C129.306 31.154 129.35 30.9786 129.379 30.8032C129.401 30.6497 129.416 30.4889 129.416 30.3354Z" fill="url(#paint3_linear_221_1233)"/>
        <path d="M81.0972 73.7946C81.0972 74.0651 81.0607 74.3355 80.9803 74.6059C80.8122 75.2199 80.4467 75.8119 79.8986 76.3528C79.8255 76.4259 79.7451 76.4989 79.6647 76.572C79.3504 76.8497 78.9776 77.1129 78.5537 77.3614C75.1331 79.3495 69.5709 79.3495 66.1357 77.3614C65.7045 77.1129 65.3244 76.8425 65.0028 76.5575C64.9151 76.4844 64.842 76.4112 64.7689 76.3382C63.9503 75.5415 63.541 74.6424 63.541 73.7507C63.541 73.1587 63.7237 72.5594 64.0819 71.9966C64.5058 71.3314 65.1782 70.7029 66.0992 70.1693C66.6912 69.8258 67.3417 69.5408 68.036 69.3289C68.4599 69.1827 68.9058 69.0657 69.3589 68.9779C72.4433 68.3348 76.0248 68.7368 78.5098 70.1693C80.2421 71.1707 81.1045 72.479 81.0972 73.7946Z" fill="url(#paint4_linear_221_1233)"/>
        <path d="M101.122 85.349L101.02 121.097C101.02 122.391 100.165 123.677 98.4693 124.664C95.056 126.652 89.4939 126.652 86.0513 124.664C84.3191 123.663 83.4566 122.354 83.4639 121.046L83.5662 85.2979C83.5662 86.6062 84.4287 87.9144 86.1537 88.9158C89.5962 90.9038 95.151 90.8965 98.5716 88.9158C100.267 87.9291 101.122 86.6354 101.122 85.349Z" fill="url(#paint5_linear_221_1233)"/>
        <path d="M98.5269 81.7298C101.969 83.7178 101.984 86.9338 98.5707 88.9145C95.1574 90.8952 89.5953 90.9026 86.1527 88.9145C82.7102 86.9265 82.7029 83.7105 86.1162 81.7225C89.5295 79.7344 95.0843 79.7344 98.5269 81.7225V81.7298Z" fill="url(#paint6_linear_221_1233)"/>
        <path d="M121.141 96.9111L121.104 110.703L118.254 109.059C114.672 106.99 108.891 106.99 105.331 109.059C104.578 109.497 103.979 109.994 103.548 110.528L103.584 96.8672C103.584 96.9622 103.592 97.0499 103.599 97.1449C103.614 97.2984 103.636 97.4446 103.672 97.5981C103.782 98.0074 103.964 98.4094 104.235 98.7895C104.345 98.9429 104.461 99.0964 104.6 99.2426C105.002 99.6885 105.529 100.105 106.179 100.478C109.614 102.466 115.176 102.466 118.59 100.478C118.699 100.419 118.802 100.354 118.897 100.288C119.094 100.164 119.284 100.032 119.46 99.8931C119.547 99.8273 119.628 99.7542 119.708 99.6884C119.788 99.6154 119.869 99.5423 119.935 99.4692C120.3 99.1111 120.585 98.731 120.782 98.3436C120.863 98.1901 120.929 98.0366 120.98 97.8758C121.089 97.5542 121.141 97.2327 121.141 96.9111Z" fill="url(#paint7_linear_221_1233)"/>
        <path d="M118.555 93.2937C121.997 95.2817 122.012 98.4977 118.599 100.478C115.185 102.459 109.623 102.467 106.181 100.478C102.738 98.4904 102.724 95.2671 106.137 93.2863C109.55 91.3056 115.112 91.3056 118.555 93.2863V93.2937Z" fill="url(#paint8_linear_221_1233)"/>
        <path d="M192.922 94.7695V95.7709C192.732 95.5443 192.535 95.3323 192.33 95.113L192.922 94.7695Z" fill="#FFCB4C"/>
        <path d="M192.966 79.7276L180.76 86.8246L178.049 88.396L178.107 68.9541C178.107 70.3063 179.006 71.6657 180.804 72.7036L192.966 79.7276Z" fill="url(#paint9_linear_221_1233)"/>
        <path d="M211.991 79.7793L211.889 115.528C211.889 117.947 210.295 120.366 207.116 122.215L195.516 128.954L195.494 138.229C195.48 142.081 192.958 145.918 187.915 148.849C179.546 153.717 166.814 154.565 156.881 151.407L141.993 160.061C135.597 163.774 125.167 163.774 118.735 160.061L105.272 152.285C103.474 151.247 102.575 149.88 102.575 148.52L102.678 112.787C102.678 113.547 102.963 114.314 103.533 115.016C103.971 115.564 104.585 116.083 105.375 116.536L118.838 124.313C119.539 124.715 120.285 125.073 121.067 125.387C127.492 127.982 136.394 127.624 142.095 124.313L156.983 115.659C161.303 117.033 166.149 117.647 170.936 117.501C171.85 117.479 172.749 117.421 173.648 117.34C174.094 117.304 174.532 117.253 174.971 117.194C175.753 117.106 176.528 116.989 177.288 116.851C181.22 116.156 184.918 114.906 188.017 113.101C188.142 113.028 188.259 112.962 188.376 112.889C189.932 111.946 191.241 110.916 192.293 109.827C192.505 109.607 192.695 109.395 192.878 109.176C193.178 108.833 193.455 108.482 193.704 108.124C193.843 107.919 193.974 107.714 194.106 107.51C194.128 107.473 194.15 107.437 194.172 107.4C194.362 107.071 194.537 106.742 194.691 106.413C194.742 106.296 194.793 106.179 194.844 106.063C194.939 105.829 195.027 105.602 195.107 105.368C195.151 105.244 195.195 105.112 195.231 104.981C195.275 104.842 195.304 104.71 195.334 104.571C195.407 104.294 195.458 104.023 195.494 103.746C195.516 103.599 195.531 103.461 195.546 103.322C195.56 103.227 195.568 103.139 195.568 103.051V103.029C195.575 102.963 195.59 102.898 195.59 102.832V102.481C195.59 100.186 194.705 97.8764 192.922 95.7714V94.7701L207.218 86.467C209.403 85.1953 210.843 83.6458 211.523 82.0232C211.589 81.8697 211.64 81.7235 211.691 81.5701C211.713 81.5116 211.735 81.4458 211.75 81.38C211.823 81.1461 211.874 80.9195 211.91 80.6856C211.932 80.576 211.947 80.4737 211.954 80.3714C211.976 80.174 211.991 79.9766 211.991 79.7793Z" fill="url(#paint10_linear_221_1233)"/>
        <path d="M192.329 95.114L192.921 94.7705V95.7718C192.731 95.5453 192.534 95.3333 192.329 95.114Z" fill="url(#paint11_linear_221_1233)"/>
        <path d="M177.333 102.431C177.333 103.585 176.573 104.733 175.053 105.617C175.038 105.625 175.016 105.639 175.001 105.639C174.592 105.88 174.146 106.085 173.678 106.253C172.838 106.56 171.917 106.765 170.967 106.867L171.003 94.6758C171.003 95.6113 171.427 96.5469 172.275 97.3728C172.348 97.4459 172.429 97.519 172.516 97.5994H172.524C172.604 97.6725 172.692 97.7456 172.779 97.8187C172.962 97.9722 173.152 98.111 173.364 98.2426C173.474 98.3084 173.583 98.3742 173.693 98.4399L175.016 99.2001C175.111 99.2586 175.206 99.3097 175.294 99.3682C175.652 99.6021 175.966 99.8433 176.229 100.106C176.96 100.823 177.326 101.627 177.326 102.431H177.333Z" fill="url(#paint12_linear_221_1233)"/>
        <path d="M211.991 79.78C211.991 79.9773 211.977 80.1747 211.955 80.3721C211.948 80.4744 211.933 80.5767 211.911 80.6863C211.874 80.9202 211.823 81.1468 211.75 81.3807C211.736 81.4465 211.714 81.5123 211.692 81.5708C211.641 81.7242 211.589 81.8704 211.524 82.0239C210.844 83.6465 209.404 85.196 207.219 86.4677L192.922 94.7708L192.33 95.1143C192.535 95.3335 192.732 95.5455 192.922 95.7721C194.706 97.8771 195.59 100.187 195.59 102.482V102.562C195.59 102.716 195.583 102.876 195.568 103.03V103.052C195.561 103.14 195.553 103.235 195.546 103.322C195.532 103.461 195.517 103.6 195.495 103.746C195.473 103.885 195.451 104.024 195.422 104.155C195.393 104.294 195.371 104.433 195.334 104.572C195.305 104.711 195.276 104.843 195.232 104.981C195.195 105.113 195.151 105.245 195.108 105.369C195.027 105.603 194.94 105.829 194.844 106.063C194.793 106.18 194.742 106.297 194.691 106.414C194.538 106.743 194.362 107.072 194.172 107.401C194.15 107.437 194.128 107.474 194.106 107.51C193.975 107.715 193.843 107.92 193.704 108.124C193.456 108.482 193.178 108.833 192.878 109.177C192.696 109.396 192.506 109.608 192.294 109.827C191.241 110.916 189.933 111.947 188.376 112.89C188.259 112.963 188.142 113.029 188.018 113.102C184.919 114.907 181.221 116.157 177.288 116.851C176.528 116.99 175.753 117.107 174.971 117.195C174.533 117.253 174.094 117.304 173.648 117.341C172.749 117.421 171.85 117.48 170.937 117.502C166.149 117.648 161.304 117.034 156.984 115.66L142.095 124.314C136.394 127.625 127.492 127.983 121.067 125.388C120.285 125.074 119.54 124.716 118.838 124.314L105.375 116.537C104.586 116.084 103.972 115.565 103.533 115.017L103.548 110.529C103.979 109.995 104.578 109.498 105.331 109.06C108.891 106.991 114.672 106.991 118.254 109.06L121.104 110.704L130.416 116.084L149.733 104.857C153.286 102.789 159.074 102.789 162.656 104.857L163.971 105.617C165.879 106.721 168.518 107.138 170.966 106.867C171.916 106.765 172.837 106.56 173.678 106.253C174.145 106.085 174.591 105.88 175.001 105.639C175.015 105.639 175.037 105.625 175.052 105.617C176.572 104.733 177.332 103.585 177.332 102.431C177.332 101.627 176.967 100.823 176.236 100.106C175.973 99.8432 175.658 99.602 175.3 99.3681C175.213 99.3097 175.118 99.2585 175.022 99.2001L173.7 98.4399C173.59 98.3741 173.48 98.3083 173.371 98.2425C173.159 98.1037 172.969 97.9648 172.786 97.8186C172.698 97.7456 172.611 97.6724 172.53 97.5993H172.523C172.435 97.5189 172.355 97.4459 172.282 97.3728C171.434 96.5469 171.01 95.6113 171.01 94.6757C171.01 93.3309 171.894 91.9787 173.663 90.9555L178.056 88.3973L180.767 86.8259L192.973 79.7289L180.811 72.7049C179.013 71.6671 178.114 70.3076 178.114 68.9554C178.114 67.6033 178.999 66.2511 180.775 65.2278C184.327 63.1594 190.108 63.1521 193.69 65.2205L207.153 72.9972C210.391 74.8683 212.006 77.3242 211.999 79.78H211.991Z" fill="url(#paint13_linear_221_1233)"/>
    </g>
    <defs>
        <filter id="filter0_d_221_1233" x="0" y="0" width="231.999" height="186.846" filterUnits="userSpaceOnUse" color-interpolation-filters="sRGB">
            <feFlood flood-opacity="0" result="BackgroundImageFix"/>
            <feColorMatrix in="SourceAlpha" type="matrix" values="0 0 0 0 0 0 0 0 0 0 0 0 0 0 0 0 0 0 127 0" result="hardAlpha"/>
            <feOffset dy="4"/>
            <feGaussianBlur stdDeviation="10"/>
            <feComposite in2="hardAlpha" operator="out"/>
            <feColorMatrix type="matrix" values="0 0 0 0 0.751406 0 0 0 0 0.844566 0 0 0 0 0.954167 0 0 0 1 0"/>
            <feBlend mode="normal" in2="BackgroundImageFix" result="effect1_dropShadow_221_1233"/>
            <feBlend mode="normal" in="SourceGraphic" in2="effect1_dropShadow_221_1233" result="shape"/>
        </filter>
        <linearGradient id="paint0_linear_221_1233" x1="38.1201" y1="40.6406" x2="38.1201" y2="49.8938" gradientUnits="userSpaceOnUse">
            <stop stop-color="#ABDEFF"/>
            <stop offset="1" stop-color="#F2F2F2"/>
        </linearGradient>
        <linearGradient id="paint1_linear_221_1233" x1="74.7593" y1="16" x2="74.7593" y2="79.4277" gradientUnits="userSpaceOnUse">
            <stop offset="0.458333" stop-color="#5FB0DD"/>
            <stop offset="1" stop-color="#7DD1FF"/>
        </linearGradient>
        <linearGradient id="paint2_linear_221_1233" x1="72.27" y1="73.75" x2="72.27" y2="114.6" gradientUnits="userSpaceOnUse">
            <stop stop-color="#ABDEFF"/>
            <stop offset="1" stop-color="#F2F2F2"/>
        </linearGradient>
        <linearGradient id="paint3_linear_221_1233" x1="74.7079" y1="27.0244" x2="74.7079" y2="115.177" gradientUnits="userSpaceOnUse">
            <stop stop-color="#ABDEFF"/>
            <stop offset="1" stop-color="#F2F2F2"/>
        </linearGradient>
        <linearGradient id="paint4_linear_221_1233" x1="72.3191" y1="68.6807" x2="72.3191" y2="78.8525" gradientUnits="userSpaceOnUse">
            <stop offset="0.458333" stop-color="#5FB0DD"/>
            <stop offset="1" stop-color="#7DD1FF"/>
        </linearGradient>
        <linearGradient id="paint5_linear_221_1233" x1="92.2932" y1="85.2979" x2="92.2932" y2="126.155" gradientUnits="userSpaceOnUse">
            <stop stop-color="#ABDEFF"/>
            <stop offset="1" stop-color="#F2F2F2"/>
        </linearGradient>
        <linearGradient id="paint6_linear_221_1233" x1="92.3416" y1="80.2314" x2="92.3416" y2="90.4028" gradientUnits="userSpaceOnUse">
            <stop offset="0.458333" stop-color="#5FB0DD"/>
            <stop offset="1" stop-color="#7DD1FF"/>
        </linearGradient>
        <linearGradient id="paint7_linear_221_1233" x1="112.344" y1="96.8672" x2="112.344" y2="110.703" gradientUnits="userSpaceOnUse">
            <stop stop-color="#ABDEFF"/>
            <stop offset="1" stop-color="#F2F2F2"/>
        </linearGradient>
        <linearGradient id="paint8_linear_221_1233" x1="112.368" y1="91.8008" x2="112.368" y2="101.967" gradientUnits="userSpaceOnUse">
            <stop offset="0.458333" stop-color="#5FB0DD"/>
            <stop offset="1" stop-color="#7DD1FF"/>
        </linearGradient>
        <linearGradient id="paint9_linear_221_1233" x1="185.508" y1="68.9541" x2="185.508" y2="88.396" gradientUnits="userSpaceOnUse">
            <stop stop-color="#ABDEFF"/>
            <stop offset="1" stop-color="#F2F2F2"/>
        </linearGradient>
        <linearGradient id="paint10_linear_221_1233" x1="157.283" y1="79.7793" x2="157.283" y2="162.846" gradientUnits="userSpaceOnUse">
            <stop stop-color="#ABDEFF"/>
            <stop offset="1" stop-color="#F2F2F2"/>
        </linearGradient>
        <linearGradient id="paint11_linear_221_1233" x1="192.625" y1="94.7705" x2="192.625" y2="95.7718" gradientUnits="userSpaceOnUse">
            <stop stop-color="#ABDEFF"/>
            <stop offset="1" stop-color="#F2F2F2"/>
        </linearGradient>
        <linearGradient id="paint12_linear_221_1233" x1="174.15" y1="94.6758" x2="174.15" y2="106.867" gradientUnits="userSpaceOnUse">
            <stop stop-color="#ABDEFF"/>
            <stop offset="1" stop-color="#F2F2F2"/>
        </linearGradient>
        <linearGradient id="paint13_linear_221_1233" x1="157.766" y1="63.6729" x2="157.766" y2="127.098" gradientUnits="userSpaceOnUse">
            <stop offset="0.458333" stop-color="#5FB0DD"/>
            <stop offset="1" stop-color="#7DD1FF"/>
        </linearGradient>
    </defs>
</svg>
