<svg width="232" height="193" viewBox="0 0 232 193" fill="none" xmlns="http://www.w3.org/2000/svg">
    <g opacity="0.6" filter="url(#filter0_d_221_1315)">
        <path d="M161.011 28.7301C161.011 30.145 160.079 31.5599 158.206 32.6503C154.494 34.7977 148.51 34.8143 144.831 32.7002C143 31.6348 142.084 30.2448 142.084 28.8465C142.084 27.9726 142.45 27.0903 143.174 26.2913C143.249 26.2081 143.324 26.1332 143.407 26.0499C143.807 25.6504 144.298 25.2842 144.872 24.9513C148.593 22.7956 154.602 22.7623 158.281 24.8847C158.739 25.1511 159.138 25.434 159.48 25.7337C159.563 25.8086 159.646 25.8835 159.721 25.9584C160.27 26.4911 160.636 27.0737 160.836 27.673C160.861 27.7313 160.878 27.7978 160.894 27.8644C160.978 28.1474 161.011 28.4387 161.011 28.7301Z" fill="url(#paint0_linear_221_1315)"/>
        <path d="M155.744 89.4297V90.1538L154.579 89.4796C154.97 89.463 155.362 89.4547 155.744 89.4297Z" fill="#FFCB4C"/>
        <path d="M155.861 49.4455L151.384 52.0506L142.037 46.6572L120.338 34.1307L120.355 28.9453L142.053 41.4718L155.861 49.4455Z" fill="url(#paint1_linear_221_1315)"/>
        <path d="M76.2728 96.8639C75.9398 96.8722 75.5986 96.8888 75.2656 96.9055V96.2812L76.2728 96.8639Z" fill="#FFCB4C"/>
        <path d="M24.0956 101.907C21.3739 99.5512 20.1421 96.9876 20.1504 94.3242V93.4336C20.1588 93.4835 20.1587 93.5418 20.167 93.5917C20.167 93.6334 20.1671 93.6833 20.1837 93.7332C20.1837 93.7415 20.192 93.7499 20.192 93.7582C20.2004 93.8664 20.217 93.9746 20.2336 94.0828C20.2669 94.2992 20.3086 94.5156 20.3585 94.732C20.4168 94.9817 20.475 95.2231 20.5499 95.4645C20.6914 95.9639 20.8662 96.4549 21.0743 96.946C21.2824 97.437 21.5154 97.9365 21.7818 98.4275C21.8816 98.6273 21.9982 98.8187 22.1147 99.0102C22.2146 99.185 22.3145 99.368 22.431 99.5428C22.431 99.5511 22.4393 99.5512 22.4393 99.5595C22.4476 99.5761 22.4559 99.5844 22.4643 99.6011C22.4726 99.6177 22.4809 99.6261 22.4893 99.6427C22.5808 99.7925 22.6807 99.9424 22.7806 100.092C22.8971 100.275 23.0303 100.458 23.1551 100.641C23.4547 101.066 23.771 101.49 24.0956 101.907Z" fill="#FFCB4C"/>
        <path d="M211.676 52.1523L211.559 92.8613C211.559 93.5522 211.476 94.2346 211.326 94.9088V91.7543C211.343 88.5915 209.404 85.5868 204.726 82.8485C204.693 82.8318 204.651 82.8069 204.61 82.7819L191.276 75.0912L175.611 84.1885C174.23 84.9876 172.748 85.7034 171.175 86.311C166.547 88.1504 161.187 89.1825 155.744 89.4322C155.361 89.4571 154.97 89.4655 154.579 89.4821C147.862 89.6486 141.095 88.6415 135.485 86.4774C133.912 85.8698 132.43 85.179 131.065 84.3883L100.011 66.46L95.5917 63.9048C85.8785 58.2949 69.5733 58.4614 59.91 64.0712L55.9149 66.3934L39.7928 75.7654L27.5492 82.8818L26.3174 83.5976C22.2973 85.9364 20.4495 88.7164 20.1582 91.6795L20.2664 53.6339C20.2664 54.4163 20.3746 55.1987 20.591 55.9644C20.6909 56.289 20.8074 56.6136 20.9406 56.9382C21.0821 57.2628 21.2402 57.5791 21.415 57.9037C21.5315 58.1118 21.6647 58.3199 21.8062 58.5363C21.9477 58.7444 22.0975 58.9525 22.2557 59.1605C22.4138 59.3686 22.5803 59.5684 22.7634 59.7765C22.9465 59.9762 23.1379 60.1843 23.3377 60.384C24.4364 61.491 25.8513 62.5564 27.6075 63.5719L39.8094 70.6216L55.9315 61.2496C67.5674 54.4912 87.9926 54.3747 100.028 61.3246L135.502 81.8081C139.072 83.8722 143.442 85.1706 148.036 85.7033C150.567 86.0113 153.172 86.0862 155.752 85.9197C161.379 85.5785 166.872 84.1386 171.183 81.6333L204.784 62.1153C205.5 61.6991 206.158 61.2663 206.757 60.8085C207.14 60.5172 207.506 60.2176 207.847 59.9179H207.856C208.072 59.7182 208.28 59.5184 208.472 59.3187C209.753 58.0286 210.636 56.6469 211.135 55.207C211.185 55.0905 211.218 54.974 211.26 54.8491C211.401 54.408 211.501 53.9668 211.568 53.5174V53.5007C211.643 53.0512 211.676 52.6018 211.676 52.1523Z" fill="url(#paint2_linear_221_1315)"/>
        <path d="M155.744 89.4297V90.1538L154.579 89.4796C154.97 89.463 155.362 89.4547 155.744 89.4297Z" fill="#FFCB4C"/>
        <path d="M205.366 41.2063C200.414 37.2112 194.721 33.3908 188.803 29.97C188.636 29.8784 188.47 29.7785 188.295 29.687C182.203 26.1995 175.885 23.1532 169.893 20.7229C152.231 13.5815 143.982 15.2129 133.803 21.1307L120.353 28.9462L142.051 41.4727L155.86 49.4463L151.382 52.0515L142.035 46.6581L120.336 34.1316L115.866 31.5514L102.541 23.8607C92.2201 17.9012 77.0218 16.2616 62.4728 21.4386C45.7764 27.3731 37.2367 32.159 26.6163 42.28C22.6128 46.0837 20.2656 49.9624 20.2656 53.6329C20.2656 54.4153 20.3738 55.1977 20.5902 55.9634C20.6901 56.288 20.8066 56.6126 20.9398 56.9372C21.0813 57.2619 21.2394 57.5782 21.4142 57.9028C21.5391 58.1109 21.664 58.3189 21.8055 58.5353C21.9469 58.7434 22.0967 58.9515 22.2549 59.1596C22.413 59.3677 22.5878 59.5674 22.7626 59.7755C22.9457 59.9753 23.1371 60.1833 23.3369 60.3831C24.4356 61.4901 25.8505 62.5555 27.6067 63.5709L39.8086 70.6207L55.9307 61.2487C67.5666 54.4902 87.9918 54.3737 100.027 61.3236L135.501 81.8071C139.072 83.8713 143.441 85.1697 148.036 85.7024C150.566 86.0103 153.171 86.0853 155.751 85.9188C161.378 85.5775 166.871 84.1376 171.183 81.6323L204.784 62.1143C205.499 61.6982 206.157 61.2654 206.756 60.8076C207.139 60.5163 207.505 60.2166 207.846 59.917H207.855C208.071 59.7089 208.279 59.5175 208.471 59.3177C209.753 58.0276 210.635 56.646 211.134 55.206C211.184 55.0895 211.217 54.973 211.259 54.8482C211.392 54.407 211.492 53.9659 211.567 53.5164V53.4997C212.191 49.3298 209.919 44.8852 205.366 41.2063ZM158.207 32.65C154.495 34.7974 148.51 34.8141 144.831 32.7C143 31.6346 142.085 30.2446 142.085 28.8463C142.085 27.9724 142.451 27.0901 143.175 26.2911C143.25 26.2078 143.325 26.1246 143.408 26.0497C143.807 25.6502 144.299 25.284 144.873 24.951C148.593 22.7953 154.603 22.7621 158.282 24.8845C158.739 25.1508 159.139 25.4338 159.48 25.7334C159.563 25.8083 159.647 25.8833 159.722 25.9582C160.271 26.4909 160.637 27.0735 160.837 27.6727C160.862 27.731 160.878 27.7976 160.895 27.8642C160.978 28.1472 161.012 28.4385 161.012 28.7298C161.012 30.1448 160.079 31.5597 158.207 32.65Z" fill="url(#paint3_linear_221_1315)"/>
        <path d="M76.2728 96.8639C75.9398 96.8722 75.5986 96.8888 75.2656 96.9055V96.2812L76.2728 96.8639Z" fill="#FFCB4C"/>
        <path d="M211.334 91.7549V94.9094L211.217 132.464C211.209 136.193 208.487 140.146 204.359 144.141C193.73 154.429 183.26 160.696 168.503 164.974C154.178 169.144 143.183 171.075 132.862 165.116L115.109 154.87L110.639 152.29L110.739 116.766L79.7352 98.8629L76.2728 96.8654L75.2656 96.2827L79.7519 93.6775L86.4188 97.5312H86.4271L115.226 114.161L132.979 124.407C143.3 130.366 154.295 128.435 168.619 124.265C183.376 119.987 193.847 113.72 204.476 103.432C204.917 103 205.35 102.575 205.757 102.142C208.679 99.0876 210.693 96.0663 211.201 93.1615C211.234 93.0117 211.251 92.8536 211.267 92.6954C211.309 92.3791 211.334 92.0712 211.334 91.7549Z" fill="url(#paint4_linear_221_1315)"/>
        <path d="M110.74 116.765L110.64 152.289L110.624 157.474L97.1815 165.289C86.9939 171.207 73.0025 169.118 61.4915 165.456C53.1849 162.809 46.518 159.929 40.958 156.708C34.9154 153.221 30.1628 149.351 26.0262 144.972C22.4388 141.185 19.9834 137.082 20.0001 133.237L20.1083 92.5527C20.1083 92.7442 20.1166 92.9439 20.125 93.1354C20.1333 93.2269 20.1416 93.3184 20.1499 93.41V94.3256C20.1416 96.989 21.3735 99.5526 24.0952 101.908H24.1035L24.1118 101.925C24.2699 102.124 24.4197 102.308 24.5862 102.507C24.7277 102.682 24.8775 102.865 25.0357 103.04C25.3853 103.448 25.7598 103.856 26.1426 104.264C30.2793 108.642 35.0235 112.512 41.0745 115.999C46.6345 119.22 53.3014 122.1 61.608 124.747C62.3987 124.997 63.1977 125.238 64.0134 125.471C64.5294 125.621 65.0538 125.771 65.5782 125.912C65.7197 125.946 65.8612 125.987 66.011 126.02C66.3439 126.112 66.6768 126.195 67.0098 126.278C67.3427 126.362 67.6839 126.445 68.0252 126.528C68.3581 126.611 68.6911 126.686 69.0323 126.761C69.3736 126.836 69.7148 126.911 70.0561 126.978C70.905 127.161 71.754 127.319 72.6113 127.469C72.9858 127.527 73.3521 127.594 73.7266 127.652C74.2094 127.718 74.7005 127.793 75.1832 127.852C75.3913 127.885 75.5994 127.902 75.8074 127.927C75.8324 127.927 75.849 127.927 75.874 127.927C76.1237 127.96 76.3818 127.985 76.6398 128.01C77.0643 128.06 77.4887 128.093 77.9215 128.126C77.9382 128.126 77.9632 128.126 77.9798 128.126C78.2628 128.151 78.5541 128.168 78.8454 128.185H78.8787C79.1451 128.201 79.3948 128.218 79.6528 128.226C80.0107 128.243 80.3602 128.259 80.7098 128.259C81.076 128.268 81.4422 128.276 81.8085 128.276H82.1914C82.2663 128.276 82.3412 128.276 82.4161 128.268C82.5742 128.268 82.7407 128.268 82.8988 128.259C83.5564 128.243 84.2139 128.209 84.8631 128.16C85.1544 128.143 85.4458 128.118 85.7371 128.085C85.8952 128.068 86.0534 128.051 86.2115 128.035C86.2864 128.026 86.3696 128.018 86.4445 128.001C86.8357 127.968 87.2186 127.91 87.6015 127.852C88.0343 127.785 88.4671 127.71 88.8999 127.627C88.9249 127.619 88.9499 127.619 88.9748 127.61C89.3993 127.535 89.8155 127.444 90.2233 127.336C90.5396 127.269 90.8475 127.186 91.1555 127.103C91.4968 127.011 91.838 126.911 92.1709 126.803C92.2042 126.795 92.2458 126.786 92.2791 126.77C92.2874 126.77 92.2958 126.77 92.3041 126.77C92.6287 126.661 92.9533 126.561 93.2779 126.437C93.5526 126.345 93.8189 126.237 94.0853 126.129C94.1185 126.112 94.1602 126.104 94.1935 126.079C94.4182 126.004 94.6346 125.904 94.851 125.804C95.0841 125.713 95.3088 125.604 95.5335 125.496C96.1328 125.213 96.7238 124.905 97.2981 124.572L110.74 116.757V116.765Z" fill="url(#paint5_linear_221_1315)"/>
        <path d="M24.0956 101.907C21.3739 99.5512 20.1421 96.9876 20.1504 94.3242V93.4336C20.1588 93.4835 20.1587 93.5418 20.167 93.5917C20.167 93.6334 20.1671 93.6833 20.1837 93.7332C20.1837 93.7415 20.192 93.7499 20.192 93.7582C20.2004 93.8664 20.217 93.9746 20.2336 94.0828C20.2669 94.2992 20.3086 94.5156 20.3585 94.732C20.4168 94.9817 20.475 95.2231 20.5499 95.4645C20.6914 95.9639 20.8662 96.4549 21.0743 96.946C21.2824 97.437 21.5154 97.9365 21.7818 98.4275C21.8816 98.6273 21.9982 98.8187 22.1147 99.0102C22.2146 99.185 22.3145 99.368 22.431 99.5428C22.431 99.5511 22.4393 99.5512 22.4393 99.5595C22.4476 99.5761 22.4559 99.5844 22.4643 99.6011C22.4726 99.6177 22.4809 99.6261 22.4893 99.6427C22.5808 99.7925 22.6807 99.9424 22.7806 100.092C22.8971 100.275 23.0303 100.458 23.1551 100.641C23.4547 101.066 23.771 101.49 24.0956 101.907Z" fill="#FFCB4C"/>
        <path d="M154.578 89.4806L155.743 90.1548V89.4307C155.36 89.4556 154.969 89.464 154.578 89.4806ZM75.2656 96.2807V96.9049C75.5985 96.8883 75.9398 96.8716 76.2727 96.8633L75.2656 96.2807ZM20.1074 92.5519C20.1074 92.7433 20.1158 92.9431 20.1241 93.1345C20.1324 93.2261 20.1408 93.3176 20.1491 93.4091V91.6862C20.1241 91.9692 20.1074 92.2606 20.1074 92.5519Z" fill="#FFCB4C"/>
        <path d="M204.725 82.8481C204.725 82.8481 204.65 82.8065 204.608 82.7815L191.274 75.0908L175.61 84.1882C174.228 84.9872 172.747 85.703 171.174 86.3106C166.546 88.15 161.186 89.1821 155.742 89.4318V90.1559L154.577 89.4817C147.86 89.6482 141.093 88.6411 135.484 86.4771C133.91 85.8695 132.429 85.1786 131.064 84.3879L100.01 66.4596L95.5903 63.9044C85.877 58.2945 69.5718 58.461 59.9085 64.0709L55.9134 66.3931L39.7913 75.765L27.5478 82.8814L26.3159 83.5972C22.2958 85.936 20.448 88.716 20.1567 91.6791L20.1484 93.4103V93.4353C20.1568 93.4852 20.1567 93.5435 20.165 93.5934C20.165 93.635 20.1651 93.685 20.1817 93.7349C20.1817 93.7432 20.19 93.7516 20.19 93.7599C20.1984 93.8681 20.215 93.9763 20.2316 94.0845C20.2649 94.3009 20.3066 94.5173 20.3565 94.7337C20.4148 94.9834 20.473 95.2248 20.5479 95.4662C20.6894 95.9655 20.8642 96.4566 21.0723 96.9477C21.2804 97.4387 21.5134 97.9382 21.7798 98.4292C21.8796 98.629 21.9962 98.8204 22.1127 99.0119C22.2126 99.1866 22.3125 99.3697 22.429 99.5445C22.429 99.5528 22.4373 99.5529 22.4373 99.5612C22.4457 99.5778 22.4539 99.5861 22.4623 99.6028C22.4706 99.6194 22.4789 99.6277 22.4873 99.6444C22.5788 99.7942 22.6787 99.9441 22.7786 100.094C22.8951 100.277 23.0283 100.46 23.1531 100.643C23.4528 101.068 23.769 101.492 24.0936 101.908H24.102L24.1103 101.925C24.2684 102.125 24.4182 102.308 24.5847 102.508C24.7262 102.682 24.876 102.865 25.0342 103.04C25.3838 103.448 25.7583 103.856 26.1411 104.264C30.2778 108.642 35.022 112.512 41.073 116C46.633 119.221 53.2999 122.101 61.6065 124.747C62.3972 124.997 63.1962 125.238 64.0119 125.471C64.5279 125.621 65.0523 125.771 65.5767 125.913C65.7181 125.946 65.8597 125.987 66.0095 126.021C66.3424 126.112 66.6753 126.196 67.0083 126.279C67.3412 126.362 67.6824 126.445 68.0237 126.528C68.3566 126.612 68.6896 126.687 69.0308 126.762C69.3721 126.836 69.7133 126.911 70.0546 126.978C70.9035 127.161 71.7525 127.319 72.6098 127.469C72.9843 127.527 73.3506 127.594 73.7251 127.652C74.2079 127.719 74.699 127.794 75.1817 127.852C75.3898 127.885 75.5979 127.902 75.806 127.927C75.8309 127.927 75.8475 127.927 75.8725 127.927C76.1222 127.96 76.3803 127.985 76.6383 128.01C77.0628 128.06 77.4872 128.093 77.92 128.127C77.9367 128.127 77.9617 128.127 77.9783 128.127C78.2613 128.152 78.5526 128.168 78.8439 128.185H78.8772C79.1436 128.201 79.3933 128.218 79.6513 128.226C80.0092 128.243 80.3587 128.26 80.7083 128.26C81.0745 128.268 81.4408 128.276 81.807 128.276H82.1899C82.2648 128.276 82.3397 128.276 82.4146 128.268C82.5727 128.268 82.7392 128.268 82.8973 128.26C83.5549 128.243 84.2124 128.21 84.8616 128.16C85.153 128.143 85.4443 128.118 85.7356 128.085C85.8937 128.068 86.0519 128.052 86.21 128.035C86.2849 128.027 86.3681 128.018 86.443 128.002C86.8342 127.968 87.2171 127.91 87.6 127.852C88.0328 127.785 88.4656 127.71 88.8984 127.627C88.9234 127.619 88.9484 127.619 88.9733 127.611C89.3895 127.527 89.8056 127.436 90.2218 127.336C90.5381 127.269 90.846 127.186 91.154 127.103C91.4953 127.011 91.8365 126.911 92.1694 126.803C92.2027 126.795 92.2443 126.786 92.2776 126.77C92.2859 126.77 92.2943 126.77 92.3026 126.77C92.6272 126.662 92.9518 126.562 93.2764 126.437C93.5511 126.345 93.8174 126.237 94.0838 126.129C94.1171 126.112 94.1587 126.104 94.192 126.079C94.4084 125.996 94.6248 125.904 94.8495 125.804C95.0826 125.713 95.3073 125.605 95.532 125.496C96.1313 125.213 96.7223 124.905 97.2966 124.573L110.739 116.757L79.7345 98.8537L76.272 96.8561C75.9391 96.8644 75.5978 96.8811 75.2649 96.8977V96.2735L79.7512 93.6683L86.4181 97.522H86.4264L115.225 114.152L132.978 124.398C143.299 130.357 154.294 128.426 168.618 124.256C183.376 119.978 193.846 113.711 204.475 103.423C204.916 102.99 205.349 102.566 205.757 102.133C208.678 99.0784 210.692 96.0571 211.2 93.1523C211.233 93.0024 211.25 92.8443 211.267 92.6862C211.308 92.3699 211.333 92.0619 211.333 91.7456C211.342 88.5828 209.402 85.5781 204.725 82.8398V82.8481ZM76.0473 111.846C76.297 111.78 76.555 111.73 76.8214 111.68C76.8796 111.671 76.9462 111.663 77.0128 111.647C77.2042 111.613 77.3956 111.588 77.5871 111.572C77.6786 111.563 77.7702 111.547 77.8618 111.538C77.9533 111.53 78.0449 111.513 78.1364 111.513C78.1947 111.505 78.2529 111.497 78.3195 111.497C78.4777 111.48 78.6358 111.472 78.794 111.463C79.0686 111.447 79.335 111.438 79.6097 111.438H79.7012C79.9759 111.438 80.2589 111.438 80.5335 111.463C80.8332 111.48 81.1328 111.505 81.4241 111.538C81.7238 111.572 82.0151 111.613 82.3064 111.663C82.5561 111.705 82.7975 111.755 83.0388 111.805H83.0471C83.122 111.821 83.197 111.838 83.2635 111.855C83.4716 111.905 83.6797 111.963 83.8795 112.021C83.9544 112.046 84.0293 112.063 84.1042 112.096C84.1458 112.104 84.1874 112.121 84.2291 112.129C84.3789 112.179 84.5287 112.229 84.6702 112.279C84.7784 112.321 84.8783 112.362 84.9781 112.404C85.0197 112.412 85.053 112.429 85.0863 112.446C85.2445 112.504 85.3943 112.57 85.5441 112.645C85.7855 112.762 86.0269 112.878 86.2516 113.012C86.3681 113.078 86.4763 113.145 86.5845 113.211C86.9091 113.419 87.2005 113.636 87.4585 113.86C87.5417 113.935 87.6249 114.01 87.6998 114.094C87.7831 114.16 87.858 114.243 87.9329 114.327C88.1576 114.576 88.3491 114.826 88.4989 115.092C88.5572 115.192 88.6154 115.3 88.6736 115.409C88.6736 115.417 88.6737 115.425 88.682 115.434C88.682 115.45 88.6986 115.467 88.707 115.484V115.5C88.7569 115.608 88.7985 115.717 88.8318 115.825C88.8318 115.85 88.8485 115.875 88.8568 115.9V115.916C88.8901 116 88.9067 116.074 88.9317 116.158C88.9317 116.166 88.94 116.183 88.94 116.191C88.94 116.208 88.94 116.224 88.94 116.241C88.94 116.258 88.9483 116.266 88.9483 116.283C88.9566 116.374 88.9733 116.474 88.9816 116.574C88.9816 116.665 88.9983 116.765 88.9983 116.865C88.9983 118.263 88.0661 119.662 86.2183 120.744C86.21 120.744 86.21 120.744 86.2017 120.744C84.3872 121.801 82.0317 122.35 79.6596 122.383C78.1281 122.408 76.5883 122.225 75.19 121.809C74.3244 121.568 73.517 121.235 72.8012 120.819C71.095 119.828 70.1794 118.546 70.0712 117.231V117.148C70.0629 117.082 70.0629 117.032 70.0712 116.973C70.0712 116.923 70.0712 116.874 70.0796 116.824V116.74C70.0796 116.74 70.0796 116.707 70.0796 116.69C70.0796 116.624 70.0879 116.557 70.1045 116.491C70.1128 116.449 70.1212 116.399 70.1295 116.357C70.1461 116.241 70.1794 116.116 70.221 116C70.2294 115.958 70.246 115.925 70.2626 115.883C70.2793 115.816 70.3043 115.75 70.3376 115.675C70.3709 115.583 70.4125 115.492 70.4624 115.4C70.4624 115.392 70.4624 115.392 70.4624 115.392C70.504 115.309 70.5457 115.225 70.6039 115.142C70.6455 115.059 70.7038 114.967 70.7703 114.884C70.8203 114.801 70.8786 114.726 70.9452 114.643C70.9452 114.635 70.9535 114.635 70.9535 114.635C71.0201 114.551 71.0867 114.468 71.1616 114.393C71.2365 114.31 71.3114 114.227 71.3946 114.152C71.4362 114.11 71.4778 114.077 71.5195 114.035C71.6443 113.919 71.7775 113.811 71.919 113.694C72.0605 113.586 72.2103 113.478 72.3684 113.369C72.5266 113.261 72.693 113.153 72.8678 113.053C73.0509 112.945 73.234 112.845 73.4338 112.753H73.4421C73.5503 112.695 73.6586 112.637 73.7751 112.595C73.7917 112.587 73.8084 112.579 73.825 112.57C73.9665 112.512 74.108 112.446 74.2578 112.387C74.2828 112.379 74.3078 112.371 74.3327 112.362C74.3494 112.346 74.3743 112.346 74.391 112.337C74.649 112.237 74.9154 112.146 75.1817 112.063C75.19 112.063 75.1983 112.063 75.2066 112.063C75.473 111.979 75.7477 111.905 76.0306 111.846H76.0473Z" fill="url(#paint6_linear_221_1315)"/>
        <path d="M89.0071 116.866C89.0071 118.264 88.0749 119.663 86.2271 120.745C86.2188 120.745 86.2188 120.745 86.2105 120.745C84.3961 121.802 82.0405 122.351 79.6684 122.384C78.1369 122.409 76.5971 122.226 75.1988 121.81C74.3332 121.569 73.5259 121.236 72.8101 120.82C71.1038 119.829 70.1883 118.547 70.0801 117.232V116.974C70.0801 116.924 70.0801 116.875 70.0884 116.825V116.741C70.0884 116.741 70.0884 116.708 70.0884 116.691C70.0884 116.625 70.0967 116.558 70.1134 116.492C70.1217 116.45 70.13 116.4 70.1383 116.358C70.1633 116.242 70.1966 116.117 70.2299 116.001C70.2382 115.959 70.2548 115.926 70.2715 115.884C70.2881 115.817 70.3131 115.751 70.3464 115.676C70.3797 115.584 70.4213 115.493 70.4712 115.401C70.4712 115.393 70.4712 115.393 70.4712 115.393C70.5129 115.31 70.5545 115.226 70.6128 115.143C70.6544 115.06 70.7126 114.968 70.7792 114.885C70.8291 114.802 70.8874 114.727 70.954 114.644C70.954 114.636 70.9623 114.636 70.9623 114.636C71.0289 114.552 71.0955 114.469 71.1704 114.394C71.2453 114.311 71.3202 114.228 71.4034 114.153C71.4451 114.111 71.4867 114.078 71.5283 114.036C71.6532 113.92 71.7863 113.812 71.9278 113.695C72.0693 113.587 72.2192 113.479 72.3773 113.37C72.5354 113.262 72.7019 113.154 72.8767 113.054C73.0598 112.946 73.2429 112.846 73.4426 112.754H73.451C73.5592 112.696 73.6674 112.638 73.7839 112.596C73.8006 112.588 73.8172 112.58 73.8339 112.571C73.9754 112.513 74.1168 112.447 74.2666 112.388C74.2916 112.38 74.3166 112.372 74.3416 112.363C74.3582 112.347 74.3832 112.347 74.3998 112.338C74.6579 112.238 74.9242 112.147 75.1906 112.064C75.1989 112.064 75.2072 112.064 75.2155 112.064C75.4818 111.98 75.7565 111.906 76.0395 111.847C76.2892 111.789 76.5472 111.731 76.8136 111.681C76.8718 111.672 76.9384 111.664 77.005 111.648C77.1965 111.614 77.3879 111.589 77.5793 111.573C77.6709 111.564 77.7624 111.548 77.854 111.539C77.9455 111.531 78.0371 111.514 78.1286 111.514C78.1869 111.506 78.2452 111.498 78.3118 111.498C78.4699 111.481 78.628 111.473 78.7862 111.464C79.0608 111.448 79.3272 111.439 79.6019 111.439H79.6934C79.9681 111.439 80.2511 111.439 80.5257 111.464C80.8254 111.481 81.125 111.506 81.4163 111.539C81.716 111.573 82.0073 111.614 82.2986 111.664C82.5483 111.706 82.7897 111.756 83.031 111.806H83.0394C83.1143 111.822 83.1891 111.839 83.2557 111.856C83.4638 111.906 83.6719 111.964 83.8717 112.022C83.9466 112.047 84.0215 112.064 84.0964 112.097C84.138 112.105 84.1796 112.122 84.2213 112.13C84.3711 112.18 84.5209 112.23 84.6624 112.28C84.7706 112.322 84.8705 112.363 84.9704 112.405C85.012 112.413 85.0452 112.43 85.0785 112.447C85.2367 112.505 85.3865 112.571 85.5363 112.646C85.7777 112.763 86.0191 112.879 86.2438 113.013C86.3603 113.079 86.4685 113.146 86.5768 113.212C86.9014 113.42 87.1927 113.637 87.4507 113.861C87.5339 113.936 87.6171 114.011 87.692 114.095C87.7753 114.169 87.8502 114.244 87.9251 114.328C88.1498 114.577 88.3413 114.827 88.4911 115.093C88.5493 115.193 88.6076 115.301 88.6658 115.41C88.6658 115.418 88.6658 115.426 88.6742 115.435C88.6742 115.451 88.6908 115.468 88.6992 115.485V115.501C88.7491 115.609 88.7907 115.718 88.824 115.826C88.824 115.851 88.8407 115.876 88.849 115.901V115.917C88.8823 116.001 88.8989 116.075 88.9239 116.159C88.9239 116.167 88.9322 116.184 88.9322 116.192C88.9322 116.209 88.9322 116.225 88.9322 116.242C88.9322 116.259 88.9405 116.267 88.9405 116.284C88.9488 116.375 88.9655 116.475 88.9738 116.575C88.9738 116.666 88.9905 116.766 88.9905 116.866H89.0071Z" fill="url(#paint7_linear_221_1315)"/>
    </g>
    <defs>
        <filter id="filter0_d_221_1315" x="0" y="0" width="231.676" height="193.001" filterUnits="userSpaceOnUse" color-interpolation-filters="sRGB">
            <feFlood flood-opacity="0" result="BackgroundImageFix"/>
            <feColorMatrix in="SourceAlpha" type="matrix" values="0 0 0 0 0 0 0 0 0 0 0 0 0 0 0 0 0 0 127 0" result="hardAlpha"/>
            <feOffset dy="4"/>
            <feGaussianBlur stdDeviation="10"/>
            <feComposite in2="hardAlpha" operator="out"/>
            <feColorMatrix type="matrix" values="0 0 0 0 0.620469 0 0 0 0 0.735501 0 0 0 0 0.870833 0 0 0 1 0"/>
            <feBlend mode="normal" in2="BackgroundImageFix" result="effect1_dropShadow_221_1315"/>
            <feBlend mode="normal" in="SourceGraphic" in2="effect1_dropShadow_221_1315" result="shape"/>
        </filter>
        <linearGradient id="paint0_linear_221_1315" x1="151.548" y1="23.3135" x2="151.548" y2="34.2734" gradientUnits="userSpaceOnUse">
            <stop stop-color="#B8E6FF"/>
            <stop offset="1" stop-color="#C4E1F1" stop-opacity="0"/>
        </linearGradient>
        <linearGradient id="paint1_linear_221_1315" x1="138.1" y1="28.9453" x2="138.1" y2="52.0506" gradientUnits="userSpaceOnUse">
            <stop stop-color="#B8E6FF"/>
            <stop offset="1" stop-color="#C4E1F1" stop-opacity="0"/>
        </linearGradient>
        <linearGradient id="paint2_linear_221_1315" x1="115.917" y1="52.1523" x2="115.917" y2="94.9088" gradientUnits="userSpaceOnUse">
            <stop stop-color="#B8E6FF"/>
            <stop offset="1" stop-color="#C4E1F1" stop-opacity="0"/>
        </linearGradient>
        <linearGradient id="paint3_linear_221_1315" x1="115.967" y1="16" x2="115.967" y2="86.0052" gradientUnits="userSpaceOnUse">
            <stop offset="0.458333" stop-color="#5FB0DD"/>
            <stop offset="1" stop-color="#7DD1FF"/>
        </linearGradient>
        <linearGradient id="paint4_linear_221_1315" x1="143.3" y1="91.7549" x2="143.3" y2="168.883" gradientUnits="userSpaceOnUse">
            <stop stop-color="#94B9D0"/>
            <stop offset="1" stop-color="#9FC1D7" stop-opacity="0"/>
        </linearGradient>
        <linearGradient id="paint5_linear_221_1315" x1="65.37" y1="92.5527" x2="65.37" y2="169.001" gradientUnits="userSpaceOnUse">
            <stop stop-color="#94B9D0"/>
            <stop offset="1" stop-color="#9FC1D7" stop-opacity="0"/>
        </linearGradient>
        <linearGradient id="paint6_linear_221_1315" x1="115.741" y1="59.7793" x2="115.741" y2="128.276" gradientUnits="userSpaceOnUse">
            <stop stop-color="#3A99D5"/>
            <stop offset="1" stop-color="#76BBE7"/>
        </linearGradient>
        <linearGradient id="paint7_linear_221_1315" x1="79.5436" y1="111.439" x2="79.5436" y2="122.387" gradientUnits="userSpaceOnUse">
            <stop stop-color="#94B9D0"/>
            <stop offset="1" stop-color="#9FC1D7" stop-opacity="0"/>
        </linearGradient>
    </defs>
</svg>
