<svg width="237" height="193" viewBox="0 0 237 193" fill="none" xmlns="http://www.w3.org/2000/svg">
    <g opacity="0.6" filter="url(#filter0_d_221_1614)">
        <path d="M93.2731 66.1875V67.5897H92.6631L93.2731 66.1875Z" fill="#FFCB4C"/>
        <path d="M180.29 59.2715L174.856 64.9834L159.209 81.414L150.051 91.0316L112.294 103.184L95.3486 108.643L112.389 69.2772L120.668 68.0572L174.871 60.0716L180.29 59.2715Z" fill="url(#paint0_linear_221_1614)"/>
        <path d="M93.2731 66.1875V67.5897H92.6631L93.2731 66.1875Z" fill="#FFCB4C"/>
        <path d="M92.666 67.5897H93.276V66.1875L92.666 67.5897Z" fill="#FFCB4C"/>
        <path d="M143.834 23.2171L120.59 26.7584L103.391 16.6734L20.1133 16L21.5472 64.2302L39.0156 74.1647L32.9789 87.6403L38.9602 93.5264L75.7112 129.707L95.3106 123.258L107.408 119.273L147.034 106.226L148.556 102.677L152.802 92.758L176.038 89.3673L180.22 85.0815L216.464 47.9026L143.834 23.2171ZM93.2746 67.5892H92.6646L79.8307 97.234L76.226 105.552L49.0292 79.4488L42.9054 73.5705L42.446 36.8354L56.1354 44.7417L93.2746 66.187V67.5892ZM56.1751 28.7151L119.703 28.937L174.905 48.0611L119.624 56.2051L107.012 58.0589L56.1751 28.7151ZM174.857 64.9829L159.211 81.4135L150.053 91.031L112.296 103.184L95.3502 108.642L112.391 69.2766L120.67 68.0567L174.873 60.0711L180.292 59.2709L174.857 64.9829Z" fill="url(#paint1_linear_221_1614)"/>
        <path d="M174.904 48.0608L119.623 56.2048L107.011 58.0586L56.1748 28.7148L119.703 28.9367L174.904 48.0608Z" fill="url(#paint2_linear_221_1614)"/>
        <path d="M93.2749 66.1866L92.6649 67.5888L79.831 97.2336L49.0296 79.4484L42.9057 73.5701L42.4463 36.835L56.1357 44.7413L93.2749 66.1866Z" fill="url(#paint3_linear_221_1614)"/>
        <path d="M216.462 47.9026L216.359 86.65L175.924 128.115L152.689 131.505L146.921 144.973L75.5979 168.454L32.8656 126.388L32.9132 109.505L21.4419 102.978L20 54.7474L20.1109 16L21.5449 64.2302L39.0132 74.1647L32.9765 87.6403L38.9578 93.5264L75.7088 129.707L95.3083 123.258L107.405 119.274L147.032 106.226L148.553 102.677L152.799 92.758L176.035 89.3673L180.218 85.0815L216.462 47.9026Z" fill="url(#paint4_linear_221_1614)"/>
    </g>
    <defs>
        <filter id="filter0_d_221_1614" x="0" y="0" width="236.465" height="192.454" filterUnits="userSpaceOnUse" color-interpolation-filters="sRGB">
            <feFlood flood-opacity="0" result="BackgroundImageFix"/>
            <feColorMatrix in="SourceAlpha" type="matrix" values="0 0 0 0 0 0 0 0 0 0 0 0 0 0 0 0 0 0 127 0" result="hardAlpha"/>
            <feOffset dy="4"/>
            <feGaussianBlur stdDeviation="10"/>
            <feComposite in2="hardAlpha" operator="out"/>
            <feColorMatrix type="matrix" values="0 0 0 0 0.751406 0 0 0 0 0.844566 0 0 0 0 0.954167 0 0 0 1 0"/>
            <feBlend mode="normal" in2="BackgroundImageFix" result="effect1_dropShadow_221_1614"/>
            <feBlend mode="normal" in="SourceGraphic" in2="effect1_dropShadow_221_1614" result="shape"/>
        </filter>
        <linearGradient id="paint0_linear_221_1614" x1="137.819" y1="59.2715" x2="137.819" y2="108.643" gradientUnits="userSpaceOnUse">
            <stop stop-color="#ABDEFF"/>
            <stop offset="1" stop-color="#F2F2F2"/>
        </linearGradient>
        <linearGradient id="paint1_linear_221_1614" x1="118.289" y1="16" x2="118.289" y2="129.707" gradientUnits="userSpaceOnUse">
            <stop offset="0.458333" stop-color="#5FB0DD"/>
            <stop offset="1" stop-color="#7DD1FF"/>
        </linearGradient>
        <linearGradient id="paint2_linear_221_1614" x1="115.54" y1="28.7148" x2="115.54" y2="58.0586" gradientUnits="userSpaceOnUse">
            <stop stop-color="#ABDEFF"/>
            <stop offset="1" stop-color="#F2F2F2"/>
        </linearGradient>
        <linearGradient id="paint3_linear_221_1614" x1="67.8606" y1="36.835" x2="67.8606" y2="97.2336" gradientUnits="userSpaceOnUse">
            <stop stop-color="#ABDEFF"/>
            <stop offset="1" stop-color="#F2F2F2"/>
        </linearGradient>
        <linearGradient id="paint4_linear_221_1614" x1="118.231" y1="16" x2="118.231" y2="168.454" gradientUnits="userSpaceOnUse">
            <stop stop-color="#ABDEFF"/>
            <stop offset="1" stop-color="#F2F2F2"/>
        </linearGradient>
    </defs>
</svg>
