<svg xmlns="http://www.w3.org/2000/svg" width="15" height="16" viewBox="0 0 15 16" fill="none">
    <path d="M14.9619 4.4109C14.9267 3.61373 14.7978 3.06569 14.6132 2.59081C14.4226 2.08673 14.1296 1.63542 13.7456 1.26026C13.3704 0.879248 12.9161 0.583189 12.4179 0.395662C11.9403 0.210997 11.3951 0.0820861 10.5979 0.046939C9.7948 0.00881537 9.53984 0 7.50292 0C5.46599 0 5.21103 0.00881537 4.4109 0.0439624C3.61373 0.0791095 3.06569 0.208135 2.59092 0.392685C2.08673 0.583189 1.63542 0.876272 1.26026 1.26026C0.879248 1.63542 0.583303 2.0897 0.395662 2.58794C0.210997 3.06569 0.0820861 3.61076 0.046939 4.40792C0.00881537 5.21104 0 5.46599 0 7.50292C0 9.53985 0.00881537 9.7948 0.0439624 10.5949C0.0791095 11.3921 0.208135 11.9401 0.3928 12.415C0.583303 12.9191 0.879248 13.3704 1.26026 13.7456C1.63542 14.1266 2.0897 14.4227 2.58794 14.6102C3.06569 14.7948 3.61076 14.9238 4.40803 14.9589C5.20806 14.9942 5.46313 15.0029 7.50006 15.0029C9.53698 15.0029 9.79194 14.9942 10.5921 14.9589C11.3892 14.9238 11.9373 14.7948 12.4121 14.6102C13.4203 14.2204 14.2175 13.4232 14.6073 12.415C14.7919 11.9373 14.9209 11.3921 14.956 10.5949C14.9912 9.7948 15 9.53985 15 7.50292C15 5.46599 14.997 5.21104 14.9619 4.4109ZM13.6108 10.5363C13.5785 11.269 13.4555 11.6647 13.3529 11.9285C13.1008 12.5821 12.5821 13.1008 11.9285 13.3529C11.6647 13.4555 11.2662 13.5785 10.5363 13.6107C9.745 13.646 9.50767 13.6547 7.5059 13.6547C5.50412 13.6547 5.26381 13.646 4.47535 13.6107C3.74264 13.5785 3.34698 13.4555 3.08321 13.3529C2.75795 13.2327 2.4619 13.0422 2.22159 12.7931C1.97247 12.5498 1.78197 12.2567 1.66176 11.9314C1.55918 11.6677 1.43611 11.269 1.40394 10.5393C1.36867 9.74798 1.35997 9.51054 1.35997 7.50876C1.35997 5.50698 1.36867 5.26668 1.40394 4.47833C1.43611 3.74562 1.55918 3.34996 1.66176 3.08618C1.78197 2.76082 1.97247 2.46487 2.22457 2.22445C2.46773 1.97533 2.76082 1.78483 3.08618 1.66473C3.34996 1.56215 3.7486 1.43908 4.47833 1.4068C5.26965 1.37165 5.50709 1.36284 7.50876 1.36284C9.51351 1.36284 9.75084 1.37165 10.5393 1.4068C11.272 1.43908 11.6677 1.56215 11.9314 1.66473C12.2567 1.78483 12.5528 1.97533 12.7931 2.22445C13.0422 2.46773 13.2327 2.76082 13.3529 3.08618C13.4555 3.34996 13.5785 3.74848 13.6108 4.47833C13.646 5.26965 13.6548 5.50698 13.6548 7.50876C13.6548 9.51054 13.646 9.745 13.6108 10.5363Z" fill="#FBFBFB"/>
    <path d="M7.50248 3.64844C5.37476 3.64844 3.64844 5.37465 3.64844 7.50248C3.64844 9.6303 5.37476 11.3565 7.50248 11.3565C9.6303 11.3565 11.3565 9.6303 11.3565 7.50248C11.3565 5.37465 9.6303 3.64844 7.50248 3.64844ZM7.50248 10.0025C6.12212 10.0025 5.00246 8.88294 5.00246 7.50248C5.00246 6.12201 6.12212 5.00246 7.50248 5.00246C8.88294 5.00246 10.0025 6.12201 10.0025 7.50248C10.0025 8.88294 8.88294 10.0025 7.50248 10.0025V10.0025Z" fill="#FBFBFB"/>
    <path d="M12.4086 3.49527C12.4086 3.99204 12.0058 4.39484 11.5089 4.39484C11.0122 4.39484 10.6094 3.99204 10.6094 3.49527C10.6094 2.99839 11.0122 2.5957 11.5089 2.5957C12.0058 2.5957 12.4086 2.99839 12.4086 3.49527V3.49527Z" fill="#FBFBFB"/>
</svg>