<svg width="71" height="26" viewBox="0 0 71 26" fill="none" xmlns="http://www.w3.org/2000/svg">
    <path d="M7.62348 13.1695H18.4069C21.3 13.1695 23.6489 15.5131 23.6489 18.3996C23.6489 21.2854 21.3006 23.6296 18.4069 23.6296H2.38145V18.3996C2.38145 15.5137 4.72974 13.1695 7.62348 13.1695Z" fill="#CFF4FF" stroke="white" stroke-width="0.3"/>
    <path d="M11.3302 3.94188L22.1029 14.6929C24.1497 16.7356 24.1498 20.0475 22.1031 22.0901C20.0564 24.1327 16.7379 24.1326 14.691 22.0899L3.91832 11.3388C1.87145 9.29609 1.87136 5.98426 3.91809 3.94165C5.96481 1.89904 9.28332 1.89913 11.3302 3.94188Z" fill="#8BDBF4" stroke="white" stroke-width="0.3"/>
    <path d="M7.62348 2.40977H18.4069C21.3023 2.40977 23.6489 4.75151 23.6489 7.63948C23.6489 10.5274 21.3023 12.8692 18.4069 12.8692H7.62348C4.72806 12.8692 2.38145 10.5274 2.38145 7.63948C2.38145 4.75151 4.72806 2.40977 7.62348 2.40977Z" fill="#3F7EFF" stroke="white" stroke-width="0.3"/>
    <path d="M30.7495 13.1373H41.5329C44.426 13.1373 46.7749 15.4809 46.7749 18.3673C46.7749 21.2532 44.4266 23.5974 41.5329 23.5974H25.5074V18.3673C25.5074 15.4815 27.8557 13.1373 30.7495 13.1373Z" fill="#CFF4FF" stroke="white" stroke-width="0.3"/>
    <path d="M34.4562 3.91063L45.2288 14.6616C47.2757 16.7044 47.2758 20.0162 45.2291 22.0588C43.1823 24.1014 39.8638 24.1014 37.817 22.0586L27.0443 11.3076C24.9974 9.26485 24.9973 5.95301 27.0441 3.9104C29.0908 1.86779 32.4093 1.86788 34.4562 3.91063Z" fill="#8BDBF4" stroke="white" stroke-width="0.3"/>
    <path d="M30.7514 2.37852H41.5348C44.4303 2.37852 46.7769 4.72026 46.7769 7.60823C46.7769 10.4962 44.4303 12.8379 41.5348 12.8379H30.7514C27.856 12.8379 25.5094 10.4962 25.5094 7.60823C25.5094 4.72026 27.856 2.37852 30.7514 2.37852Z" fill="#3F7EFF" stroke="white" stroke-width="0.3"/>
    <path d="M59.1205 7.64078V18.4002C59.1205 21.2861 56.7722 23.6302 53.8785 23.6302H48.6364V7.64078C48.6364 4.75491 50.9847 2.41074 53.8785 2.41074C56.7716 2.41074 59.1205 4.75429 59.1205 7.64078Z" fill="#CFF4FF" stroke="white" stroke-width="0.3"/>
    <path d="M48.6363 7.79063H64.6618C67.5549 7.79063 69.9038 10.1342 69.9038 13.0207C69.9038 15.9065 67.5555 18.2507 64.6618 18.2507H53.8784C50.9853 18.2507 48.6363 15.9071 48.6363 13.0207V7.79063Z" fill="#8BDBF4" stroke="white" stroke-width="0.3"/>
    <path d="M53.8793 2.41074H64.6628C67.5582 2.41074 69.9048 4.75249 69.9048 7.64045C69.9048 10.5284 67.5582 12.8702 64.6628 12.8702H53.8793C50.9839 12.8702 48.6373 10.5284 48.6373 7.64045C48.6373 4.75249 50.9839 2.41074 53.8793 2.41074Z" fill="#3F7EFF" stroke="white" stroke-width="0.3"/>
</svg>
