<svg width="240" height="128" viewBox="0 0 240 128" fill="none" xmlns="http://www.w3.org/2000/svg">
    <mask id="path-1-inside-1_230_88" fill="white">
        <path fill-rule="evenodd" clip-rule="evenodd" d="M127.779 17L119.514 0L111.249 17H10C4.47715 17 0 21.4772 0 27V118C0 123.523 4.47716 128 10 128H230C235.523 128 240 123.523 240 118V27C240 21.4772 235.523 17 230 17H127.779Z"/>
    </mask>
    <path fill-rule="evenodd" clip-rule="evenodd" d="M127.779 17L119.514 0L111.249 17H10C4.47715 17 0 21.4772 0 27V118C0 123.523 4.47716 128 10 128H230C235.523 128 240 123.523 240 118V27C240 21.4772 235.523 17 230 17H127.779Z" fill="white"/>
    <path d="M119.514 0L120.414 -0.43725L119.514 -2.28702L118.615 -0.43725L119.514 0ZM127.779 17L126.88 17.4373L127.154 18H127.779V17ZM111.249 17V18H111.875L112.148 17.4372L111.249 17ZM118.615 0.43725L126.88 17.4373L128.679 16.5627L120.414 -0.43725L118.615 0.43725ZM112.148 17.4372L120.414 0.43725L118.615 -0.43725L110.35 16.5628L112.148 17.4372ZM10 18H111.249V16H10V18ZM1 27C1 22.0294 5.02944 18 10 18V16C3.92487 16 -1 20.9249 -1 27H1ZM1 118V27H-1V118H1ZM10 127C5.02944 127 1 122.971 1 118H-1C-1 124.075 3.92487 129 10 129V127ZM230 127H10V129H230V127ZM239 118C239 122.971 234.971 127 230 127V129C236.075 129 241 124.075 241 118H239ZM239 27V118H241V27H239ZM230 18C234.971 18 239 22.0294 239 27H241C241 20.9249 236.075 16 230 16V18ZM127.779 18H230V16H127.779V18Z" fill="#E7F0F9" mask="url(#path-1-inside-1_230_88)"/>
</svg>
