<svg xmlns="http://www.w3.org/2000/svg" width="217" height="128" viewBox="0 0 217 128" fill="none">
    <mask id="path-1-inside-1_230_95" fill="white">
        <path fill-rule="evenodd" clip-rule="evenodd" d="M116.506 17L108 0L99.4937 17H10C4.47715 17 0 21.4772 0 27V118C0 123.523 4.47716 128 10 128H207C212.523 128 217 123.523 217 118V27C217 21.4772 212.523 17 207 17H116.506Z"/>
    </mask>
    <path fill-rule="evenodd" clip-rule="evenodd" d="M116.506 17L108 0L99.4937 17H10C4.47715 17 0 21.4772 0 27V118C0 123.523 4.47716 128 10 128H207C212.523 128 217 123.523 217 118V27C217 21.4772 212.523 17 207 17H116.506Z" fill="white"/>
    <path d="M108 0L108.894 -0.447478L108 -2.23474L107.106 -0.447478L108 0ZM116.506 17L115.612 17.4475L115.888 18H116.506V17ZM99.4937 17V18H100.112L100.388 17.4475L99.4937 17ZM107.106 0.447478L115.612 17.4475L117.401 16.5525L108.894 -0.447478L107.106 0.447478ZM100.388 17.4475L108.894 0.447478L107.106 -0.447478L98.5994 16.5525L100.388 17.4475ZM10 18H99.4937V16H10V18ZM1 27C1 22.0294 5.02944 18 10 18V16C3.92487 16 -1 20.9249 -1 27H1ZM1 118V27H-1V118H1ZM10 127C5.02944 127 1 122.971 1 118H-1C-1 124.075 3.92487 129 10 129V127ZM207 127H10V129H207V127ZM216 118C216 122.971 211.971 127 207 127V129C213.075 129 218 124.075 218 118H216ZM216 27V118H218V27H216ZM207 18C211.971 18 216 22.0294 216 27H218C218 20.9249 213.075 16 207 16V18ZM116.506 18H207V16H116.506V18Z" fill="#E7F0F9" mask="url(#path-1-inside-1_230_95)"/>
</svg>