<svg xmlns="http://www.w3.org/2000/svg" width="24" height="29" viewBox="0 0 24 29" fill="none">
    <path d="M12.458 14.1584C12.458 14.1584 4.30142 15.178 4.38652 10.6401C4.48664 5.28661 10.2791 1.14204 14.8315 0C14.8315 0 9.72057 0.940092 6.25726 3.2481C2.79396 5.55611 0 8.77184 0 11.4929C0 14.214 2.82256 15.5326 4.10691 15.7522C5.39126 15.9717 8.07294 16.1096 12.458 14.1584Z" fill="#FBFBFB"/>
    <path d="M0.764648 28.9996C0.764648 28.9996 7.83142 26.4966 13.4444 21.4964C19.0573 16.4962 20.062 8.78549 8.51007 10.9971C8.51007 10.9971 13.2356 9.06836 16.6481 9.06836C20.0606 9.06836 23.9973 9.70165 23.9973 13.5943C24.0002 18.8851 13.8019 28.4444 0.764648 28.9996Z" fill="#FBFBFB"/>
    <path d="M21.4745 2.11871C22.2275 3.40219 21.6332 5.12686 20.1472 5.97055C18.6612 6.81424 16.8469 6.45889 16.0939 5.17541C15.3409 3.89193 15.9623 2.213 17.4205 1.32357C18.6891 0.549541 20.7214 0.835228 21.4745 2.11871Z" fill="#FBFBFB"/>
</svg>